<svg width="144.1144847869873" height="200.8"  xmlns="http://www.w3.org/2000/svg" version="1.1" viewBox="-5 -5 144.1144847869873 200.8"><metadata>begin A, B, C

A -&gt; ...1
...1 -&gt; C: Foo

C -&gt; ...self

B -&gt; ...2
A -&gt; ...3
...2 -&gt; A
...3 -&gt; B

...self -&gt; C: C
</metadata><defs></defs><defs><mask id="R0LineMask" maskUnits="userSpaceOnUse"><rect fill="#FFFFFF" x="-5" y="-5" width="144.1144847869873" height="200.8"></rect><rect x="52.27865695953369" y="49.300000000000004" width="19.78242588043213" height="11.4" fill="#000000" transform="rotate(17.042196646047792 62.169869899749756,60.7)"></rect><rect x="103.33828544616699" y="84.4" width="11.776199340820312" height="11.4" fill="#000000"></rect></mask></defs><g mask="url(#R0LineMask)"><line x1="24.00145435333252" y1="25.6" x2="24.00145435333252" y2="190.8" class="agent-1-line" fill="none" stroke="#000000" stroke-width="1"></line><line x1="62.00436305999756" y1="25.6" x2="62.00436305999756" y2="190.8" class="agent-2-line" fill="none" stroke="#000000" stroke-width="1"></line><line x1="100.33828544616699" y1="25.6" x2="100.33828544616699" y2="190.8" class="agent-3-line" fill="none" stroke="#000000" stroke-width="1"></line></g><g></g><g><rect x="10" y="0" width="28.00290870666504" height="25.6" fill="#FFFFFF" stroke="#000000" stroke-width="1"></rect><rect x="48.00290870666504" y="0" width="28.00290870666504" height="25.6" fill="#FFFFFF" stroke="#000000" stroke-width="1"></rect><rect x="86.00581741333008" y="0" width="28.664936065673828" height="25.6" fill="#FFFFFF" stroke="#000000" stroke-width="1"></rect><path d="M24.00145435333252 49L97.47001792557771 71.52077225343339" fill="none" stroke="#000000" stroke-width="1"></path><polygon points="93.61441541414227 75.56852833227668 99.86024085940211 72.25346204223891 96.54517456936433 66.00763659697907" fill="#000000" stroke-width="0" stroke-linejoin="miter"></polygon><path d="M62.00436305999756 110.80000000000001L26.356171848413787 138.94115478902677" fill="none" stroke="#000000" stroke-width="1"></path><polygon points="25.22036107602609 133.46758795474693 24.393907269179397 140.4901924648378 31.41651177927027 141.31664627168448" fill="#000000" stroke-width="0" stroke-linejoin="miter"></polygon><path d="M24.00145435333252 125.80000000000001L59.64964556491629 153.94115478902677" fill="none" stroke="#000000" stroke-width="1"></path><polygon points="54.58930563405981 156.31664627168448 61.61191014415068 155.4901924648378 60.785456337303984 148.46758795474693" fill="#000000" stroke-width="0" stroke-linejoin="miter"></polygon><path d="M100.33828544616699 95.80000000000001L118.1144847869873 95.80000000000001A6 6 0 0 1 124.1144847869873 101.80000000000001L124.1144847869873 159.8A6 6 0 0 1 118.1144847869873 165.8L103.33828544616699 165.8" fill="none" stroke="#000000" stroke-width="1"></path><polygon points="105.83828544616699 160.8 100.83828544616699 165.8 105.83828544616699 170.8" fill="#000000" stroke-width="0" stroke-linejoin="miter"></polygon></g><g><g class="region"><rect x="10" y="0" width="28.00290870666504" height="25.6" fill="transparent" class="outline"></rect><text x="24.00145435333252" font-family="sans-serif" font-size="12" line-height="1.3" text-anchor="middle" y="17">A</text></g><g class="region"><rect x="48.00290870666504" y="0" width="28.00290870666504" height="25.6" fill="transparent" class="outline"></rect><text x="62.00436305999756" font-family="sans-serif" font-size="12" line-height="1.3" text-anchor="middle" y="17">B</text></g><g class="region"><rect x="86.00581741333008" y="0" width="28.664936065673828" height="25.6" fill="transparent" class="outline"></rect><text x="100.33828544616699" font-family="sans-serif" font-size="12" line-height="1.3" text-anchor="middle" y="17">C</text></g><g class="region"><path d="M24.00145435333252,35.6L100.33828544616699,59.00000000000001L100.33828544616699,77.4L24.00145435333252,54Z" fill="transparent" class="outline"></path><g transform="rotate(17.042196646047792 62.169869899749756,60.7)"><text x="62.169869899749756" font-family="sans-serif" font-size="8" line-height="1.3" text-anchor="middle" y="57.300000000000004">Foo</text></g></g><g class="region"><path d="M62.00436305999756,105.80000000000001L24.00145435333252,135.8L24.00145435333252,145.8L62.00436305999756,115.80000000000001Z" fill="transparent" class="outline"></path><g transform="rotate(-38.28803031565541 43.00290870666504,125.80000000000001)"></g></g><g class="region"><path d="M24.00145435333252,120.80000000000001L62.00436305999756,150.8L62.00436305999756,160.8L24.00145435333252,130.8Z" fill="transparent" class="outline"></path><g transform="rotate(38.28803031565541 43.00290870666504,140.8)"></g></g><g class="region"><rect x="100.33828544616699" y="82.4" width="23.776199340820312" height="88.4" fill="transparent" class="outline"></rect><text x="106.33828544616699" font-family="sans-serif" font-size="8" line-height="1.3" y="92.4">C</text></g><g class="region"><rect x="19.00145435333252" y="180.8" width="10" height="10" fill="transparent" class="outline"></rect></g><g class="region"><rect x="57.00436305999756" y="180.8" width="10" height="10" fill="transparent" class="outline"></rect></g><g class="region"><rect x="95.33828544616699" y="180.8" width="10" height="10" fill="transparent" class="outline"></rect></g></g></svg>