<svg width="144.11732530593872" height="200.8"  xmlns="http://www.w3.org/2000/svg" version="1.1" viewBox="-5 -5 144.11732530593872 200.8"><metadata>begin A, B, C

A -&gt; ...1
...1 -&gt; C: Foo

C -&gt; ...self

B -&gt; ...2
A -&gt; ...3
...2 -&gt; A
...3 -&gt; B

...self -&gt; C: C
</metadata><defs></defs><defs><mask id="R0FullMask" maskUnits="userSpaceOnUse"><rect fill="#FFFFFF" height="200.8" width="144.11732530593872" x="-5" y="-5"></rect></mask><mask id="R0LineMask" maskUnits="userSpaceOnUse"><rect fill="#FFFFFF" height="200.8" width="144.11732530593872" x="-5" y="-5"></rect><rect fill="#000000" transform="rotate(17.04185768839366 62.17107057571411,60.7)" height="11.4" width="19.78441619873047" x="52.27886247634888" y="49.300000000000004"></rect><rect fill="#000000" height="11.4" width="11.77703332901001" x="103.34029197692871" y="84.4"></rect></mask></defs><g></g><g></g><g></g><g mask="url(#R0FullMask)"><g mask="url(#R0LineMask)"><line fill="none" stroke="#000000" stroke-width="1" x1="24.00184917449951" x2="24.00184917449951" y1="25.6" y2="190.8" class="agent-1-line"></line><line fill="none" stroke="#000000" stroke-width="1" x1="62.005547523498535" x2="62.005547523498535" y1="25.6" y2="190.8" class="agent-2-line"></line><line fill="none" stroke="#000000" stroke-width="1" x1="100.34029197692871" x2="100.34029197692871" y1="25.6" y2="190.8" class="agent-3-line"></line></g><g></g><g><g class="region"><g><rect fill="#FFFFFF" stroke="#000000" stroke-width="1" height="25.6" width="28.003698348999023" x="10" y="0"></rect><g><text x="24.00184917449951" font-family="Helvetica,Arial,Liberation Sans,sans-serif" font-size="12" line-height="1.3" text-anchor="middle" y="17">A</text></g></g><rect class="outline" fill="transparent" height="25.6" width="28.003698348999023" x="10" y="0"></rect></g><g class="region"><g><rect fill="#FFFFFF" stroke="#000000" stroke-width="1" height="25.6" width="28.003698348999023" x="48.00369834899902" y="0"></rect><g><text x="62.005547523498535" font-family="Helvetica,Arial,Liberation Sans,sans-serif" font-size="12" line-height="1.3" text-anchor="middle" y="17">B</text></g></g><rect class="outline" fill="transparent" height="25.6" width="28.003698348999023" x="48.00369834899902" y="0"></rect></g><g class="region"><g><rect fill="#FFFFFF" stroke="#000000" stroke-width="1" height="25.6" width="28.665790557861328" x="86.00739669799805" y="0"></rect><g><text x="100.34029197692871" font-family="Helvetica,Arial,Liberation Sans,sans-serif" font-size="12" line-height="1.3" text-anchor="middle" y="17">C</text></g></g><rect class="outline" fill="transparent" height="25.6" width="28.665790557861328" x="86.00739669799805" y="0"></rect></g><g class="region"><path d="M24.00184917449951 49L97.47201925494238 71.5207892219103" fill="none" stroke="#000000" stroke-width="1"></path><polygon points="93.61644068980425 75.56856811014609 99.86224652326432 72.25346487031838 96.54714328343661 66.00765903685831" fill="#000000" stroke-width="0" stroke-linejoin="miter"></polygon><path class="outline" fill="transparent" d="M24.00184917449951,35.6L100.34029197692871,59.00000000000001L100.34029197692871,77.4L24.00184917449951,54Z"></path><g transform="rotate(17.04185768839366 62.17107057571411,60.7)"><g><text x="62.17107057571411" font-family="Helvetica,Arial,Liberation Sans,sans-serif" font-size="8" line-height="1.3" text-anchor="middle" y="57.300000000000004">Foo</text></g></g></g><g class="region"><path d="M62.005547523498535 110.80000000000001L26.356585453577374 138.94117858415757" fill="none" stroke="#000000" stroke-width="1"></path><polygon points="25.220829993071504 133.46760027249243 24.394305221012488 140.49019643069295 31.416901379213016 141.31672120275195" fill="#000000" stroke-width="0" stroke-linejoin="miter"></polygon><path class="outline" fill="transparent" d="M62.005547523498535,105.80000000000001L24.00184917449951,135.8L24.00184917449951,145.8L62.005547523498535,115.80000000000001Z"></path><g transform="rotate(-38.287451326824375 43.00369834899902,125.80000000000001)"></g></g><g class="region"><path d="M24.00184917449951 125.80000000000001L59.65081124442067 153.94117858415757" fill="none" stroke="#000000" stroke-width="1"></path><polygon points="54.59049531878503 156.31672120275195 61.61309147698556 155.49019643069295 60.78656670492654 148.46760027249243" fill="#000000" stroke-width="0" stroke-linejoin="miter"></polygon><path class="outline" fill="transparent" d="M24.00184917449951,120.80000000000001L62.005547523498535,150.8L62.005547523498535,160.8L24.00184917449951,130.8Z"></path><g transform="rotate(38.287451326824375 43.00369834899902,140.8)"></g></g><g class="region"><rect class="outline" fill="transparent" height="88.4" width="23.77703332901001" x="100.34029197692871" y="82.4"></rect><g><text x="106.34029197692871" font-family="Helvetica,Arial,Liberation Sans,sans-serif" font-size="8" line-height="1.3" y="92.4">C</text></g><path d="M100.34029197692871 95.80000000000001L118.11732530593872 95.80000000000001A6 6 0 0 1 124.11732530593872 101.80000000000001L124.11732530593872 159.8A6 6 0 0 1 118.11732530593872 165.8L103.34029197692871 165.8" fill="none" stroke="#000000" stroke-width="1"></path><polygon points="105.84029197692871 160.8 100.84029197692871 165.8 105.84029197692871 170.8" fill="#000000" stroke-width="0" stroke-linejoin="miter"></polygon></g><g class="region"><rect class="outline" fill="transparent" height="10" width="10" x="19.00184917449951" y="180.8"></rect></g><g class="region"><rect class="outline" fill="transparent" height="10" width="10" x="57.005547523498535" y="180.8"></rect></g><g class="region"><rect class="outline" fill="transparent" height="10" width="10" x="95.34029197692871" y="180.8"></rect></g></g></g></svg>