<svg width="108.00363445281982" height="229.8"  xmlns="http://www.w3.org/2000/svg" version="1.1" viewBox="-5 -5 108.00363445281982 229.8"><metadata>begin A, B

if Abc
  A -&gt; B
else if Def
  repeat
    A -x B
  end
else
  A ~&gt;&gt; B
end

group G
B -&gt; A
end
</metadata><defs></defs><defs><mask id="R0FullMask" maskUnits="userSpaceOnUse"><rect fill="#FFFFFF" height="229.8" width="108.00363445281982" x="-5" y="-5"></rect></mask><mask id="R0LineMask" maskUnits="userSpaceOnUse"><rect fill="#FFFFFF" height="229.8" width="108.00363445281982" x="-5" y="-5"></rect><rect fill="#000000" height="12.4" width="21.78378963470459" x="21.496653079986572" y="35.6"></rect><rect fill="#000000" height="12.4" width="20.44798469543457" x="33.51372146606445" y="68.30000000000001"></rect><rect fill="#000000" height="12.4" width="14.22204065322876" x="20" y="167.4"></rect></mask></defs><g></g><g></g><g></g><g mask="url(#R0FullMask)"><g mask="url(#R0LineMask)"><line fill="none" stroke="#000000" stroke-width="1" x1="30" x2="30" y1="25.6" y2="219.8" class="agent-4-line"></line><line fill="none" stroke="#000000" stroke-width="1" x1="68.00363445281982" x2="68.00363445281982" y1="25.6" y2="219.8" class="agent-5-line"></line></g><g><g><g><path d="M21.496653079986572 35.6L21.496653079986572 46.300000000000004L19.496653079986572 48.300000000000004L10 48.300000000000004L10 35.6" fill="#FFFFFF" stroke="none" stroke-width="1" rx="2" ry="2"></path><path d="M21.496653079986572 35.6L21.496653079986572 46.300000000000004L19.496653079986572 48.300000000000004L10 48.300000000000004" fill="none" stroke="#000000" stroke-width="1" rx="2" ry="2"></path></g><g><path d="M33.51372146606445 68.30000000000001L33.51372146606445 79.00000000000001L31.513721466064453 81.00000000000001L10 81.00000000000001L10 68.30000000000001" fill="#FFFFFF" stroke="none" stroke-width="1" rx="2" ry="2"></path><path d="M33.51372146606445 68.30000000000001L33.51372146606445 79.00000000000001L31.513721466064453 81.00000000000001L10 81.00000000000001" fill="none" stroke="#000000" stroke-width="1" rx="2" ry="2"></path></g><line stroke="#000000" stroke-width="1.5" stroke-dasharray="4, 2" x1="10" x2="88.00363445281982" y1="68.30000000000001" y2="68.30000000000001"></line><g><path d="M33.51372146606445 126.70000000000002L33.51372146606445 137.4L31.513721466064453 139.4L10 139.4L10 126.70000000000002" fill="#FFFFFF" stroke="none" stroke-width="1" rx="2" ry="2"></path><path d="M33.51372146606445 126.70000000000002L33.51372146606445 137.4L31.513721466064453 139.4L10 139.4" fill="none" stroke="#000000" stroke-width="1" rx="2" ry="2"></path></g><line stroke="#000000" stroke-width="1.5" stroke-dasharray="4, 2" x1="10" x2="88.00363445281982" y1="126.70000000000002" y2="126.70000000000002"></line><rect fill="none" stroke="#000000" stroke-width="1.5" rx="2" ry="2" height="121.80000000000001" width="78.00363445281982" x="10" y="35.6"></rect></g><g><g><path d="M53.00874328613281 84.00000000000001L53.00874328613281 94.70000000000002L51.00874328613281 96.70000000000002L20 96.70000000000002L20 84.00000000000001" fill="#FFFFFF" stroke="none" stroke-width="1" rx="2" ry="2"></path><path d="M53.00874328613281 84.00000000000001L53.00874328613281 94.70000000000002L51.00874328613281 96.70000000000002L20 96.70000000000002" fill="none" stroke="#000000" stroke-width="1" rx="2" ry="2"></path></g><rect fill="none" stroke="#000000" stroke-width="1.5" rx="2" ry="2" height="30.700000000000003" width="58.003634452819824" x="20" y="84.00000000000001"></rect></g><g><rect fill="none" stroke="#000000" stroke-width="1.5" rx="2" ry="2" height="32.400000000000006" width="58.003634452819824" x="20" y="167.4"></rect></g></g><g><g class="region"><g><rect fill="#FFFFFF" stroke="#000000" stroke-width="1" height="25.6" width="28.003634452819824" x="15.998182773590088" y="0"></rect><g><text x="30" font-family="Helvetica,Arial,Liberation Sans,sans-serif" font-size="12" line-height="1.3" text-anchor="middle" y="17">A</text></g></g><rect class="outline" fill="transparent" height="25.6" width="28.003634452819824" x="15.998182773590088" y="0"></rect></g><g class="region"><g><rect fill="#FFFFFF" stroke="#000000" stroke-width="1" height="25.6" width="28.003634452819824" x="54.00181722640991" y="0"></rect><g><text x="68.00363445281982" font-family="Helvetica,Arial,Liberation Sans,sans-serif" font-size="12" line-height="1.3" text-anchor="middle" y="17">B</text></g></g><rect class="outline" fill="transparent" height="25.6" width="28.003634452819824" x="54.00181722640991" y="0"></rect></g><g class="region expanded"><rect class="outline" fill="transparent" height="12.700000000000001" width="78.00363445281982" x="10" y="35.6"></rect><g><text x="13" font-family="Helvetica,Arial,Liberation Sans,sans-serif" font-weight="bold" font-size="9" line-height="1.3" text-anchor="left" y="45.6">if</text></g><g><text x="26.496653079986572" font-family="Helvetica,Arial,Liberation Sans,sans-serif" font-size="8" line-height="1.3" text-anchor="left" y="44.6">Abc</text></g></g><g class="region"><path d="M30 56.300000000000004L65.00363445281982 56.300000000000004" fill="none" stroke="#000000" stroke-width="1"></path><polygon points="62.503634452819824 61.300000000000004 67.50363445281982 56.300000000000004 62.503634452819824 51.300000000000004" fill="#000000" stroke-width="0" stroke-linejoin="miter"></polygon><path class="outline" fill="transparent" d="M30,51.300000000000004L68.00363445281982,51.300000000000004L68.00363445281982,61.300000000000004L30,61.300000000000004Z"></path></g><g class="region"><rect class="outline" fill="transparent" height="12.700000000000001" width="78.00363445281982" x="10" y="68.30000000000001"></rect><g><text x="13" font-family="Helvetica,Arial,Liberation Sans,sans-serif" font-weight="bold" font-size="9" line-height="1.3" text-anchor="left" y="78.30000000000001">else</text></g><g><text x="38.51372146606445" font-family="Helvetica,Arial,Liberation Sans,sans-serif" font-size="8" line-height="1.3" text-anchor="left" y="77.30000000000001">Def</text></g></g><g class="region expanded"><rect class="outline" fill="transparent" height="12.700000000000001" width="58.003634452819824" x="20" y="84.00000000000001"></rect><g><text x="23" font-family="Helvetica,Arial,Liberation Sans,sans-serif" font-weight="bold" font-size="9" line-height="1.3" text-anchor="left" y="94.00000000000001">repeat</text></g></g><g class="region"><path d="M30 102.70000000000002L61.003634452819824 102.70000000000002" fill="none" stroke="#000000" stroke-width="1"></path><path d="M58.003634452819824 99.70000000000002l6 6m0 -6l-6 6" fill="none" stroke="#000000" stroke-width="1"></path><path class="outline" fill="transparent" d="M30,99.70000000000002L68.00363445281982,99.70000000000002L68.00363445281982,105.70000000000002L30,105.70000000000002Z"></path></g><g class="region"><rect class="outline" fill="transparent" height="12.700000000000001" width="78.00363445281982" x="10" y="126.70000000000002"></rect><g><text x="13" font-family="Helvetica,Arial,Liberation Sans,sans-serif" font-weight="bold" font-size="9" line-height="1.3" text-anchor="left" y="136.70000000000002">else</text></g></g><g class="region"><path d="M30 145.4L30.75 145.06666666666666L31.5 144.9L32.25 145.06666666666666L33 145.4L33.75 145.73333333333335L34.5 145.9L35.25 145.73333333333335L36 145.4L36.75 145.06666666666666L37.5 144.9L38.25 145.06666666666666L39 145.4L39.75 145.73333333333335L40.5 145.9L41.25 145.73333333333335L42 145.4L42.75 145.06666666666666L43.5 144.9L44.25 145.06666666666666L45 145.4L45.75 145.73333333333335L46.5 145.9L47.25 145.73333333333335L48 145.4L48.75 145.06666666666666L49.5 144.9L50.25 145.06666666666666L51 145.4L51.75 145.73333333333335L52.5 145.9L53.25 145.73333333333335L54 145.4L54.75 145.06666666666666L55.5 144.9L56.25 145.06666666666666L57 145.4L57.75 145.73333333333335L58.5 145.9L59.25 145.73333333333335L60 145.4L60.75 145.06666666666666L61.5 144.9L62.25 145.06666666666666L63 145.4L63.75 145.73333333333335L64.5 145.9L65.25 145.73333333333335L66.33696778615315 145.4" fill="none" stroke="#000000" stroke-width="1" stroke-linejoin="round" stroke-linecap="round"></path><polyline points="62.670301119486496 148.4 66.6703011194865 145.4 62.670301119486496 142.4" fill="none" stroke="#000000" stroke-width="1" stroke-linejoin="miter"></polyline><path class="outline" fill="transparent" d="M30,142.4L68.00363445281982,142.4L68.00363445281982,148.4L30,148.4Z"></path></g><g class="region expanded"><rect class="outline" fill="transparent" height="12.4" width="58.003634452819824" x="20" y="167.4"></rect><g><text x="25" font-family="Helvetica,Arial,Liberation Sans,sans-serif" font-size="8" line-height="1.3" text-anchor="left" y="176.4">G</text></g></g><g class="region"><path d="M68.00363445281982 187.8L33 187.8" fill="none" stroke="#000000" stroke-width="1"></path><polygon points="35.5 182.8 30.5 187.8 35.5 192.8" fill="#000000" stroke-width="0" stroke-linejoin="miter"></polygon><path class="outline" fill="transparent" d="M68.00363445281982,182.8L30,182.8L30,192.8L68.00363445281982,192.8Z"></path></g><g class="region"><rect class="outline" fill="transparent" height="10" width="10" x="25" y="209.8"></rect></g><g class="region"><rect class="outline" fill="transparent" height="10" width="10" x="63.003634452819824" y="209.8"></rect></g></g></g></svg>