<svg width="112.00291061401367" height="181.4"  xmlns="http://www.w3.org/2000/svg" version="1.1" viewBox="-5 -5 112.00291061401367 181.4"><metadata>begin A, B

if Abc
  A -&gt; B
end
repeat
  if # collapse
    A -&gt; +B
  else
    A ~&gt;&gt; B
  end
end
if Abc # collapse
  !A -&gt; -B
end
</metadata><defs></defs><defs><mask id="R0FullMask" maskUnits="userSpaceOnUse"><rect fill="#FFFFFF" height="181.4" width="112.00291061401367" x="-5" y="-5"></rect></mask><mask id="R0LineMask" maskUnits="userSpaceOnUse"><rect fill="#FFFFFF" height="181.4" width="112.00291061401367" x="-5" y="-5"></rect><rect fill="#000000" height="12.4" width="21.78343963623047" x="21.496621131896973" y="35.6"></rect><rect fill="#000000" stroke="none" stroke-width="1.5" rx="2" ry="2" height="17.700000000000003" width="62.00291061401367" x="20" y="94.00000000000001"></rect><rect fill="#000000" height="12.4" width="21.78343963623047" x="31.496621131896973" y="133.70000000000002"></rect><rect fill="#000000" stroke="none" stroke-width="1.5" rx="2" ry="2" height="17.69999999999999" width="62.00291061401367" x="20" y="133.70000000000002"></rect></mask></defs><g><rect fill="#FFFFFF" stroke="none" stroke-width="1.5" rx="2" ry="2" height="17.700000000000003" width="62.00291061401367" x="20" y="94.00000000000001"></rect><rect fill="#FFFFFF" stroke="none" stroke-width="1.5" rx="2" ry="2" height="17.69999999999999" width="62.00291061401367" x="20" y="133.70000000000002"></rect></g><g></g><g></g><g mask="url(#R0FullMask)"><g mask="url(#R0LineMask)"><line fill="none" stroke="#000000" stroke-width="1" x1="68.00291061401367" x2="68.00291061401367" y1="25.6" y2="109.70000000000002" class="agent-6-line"></line><rect fill="none" stroke="#000000" stroke-width="1" height="39.69999999999999" width="8" x="64.00291061401367" y="109.70000000000002" class="agent-6-line"></rect><line fill="none" stroke="#000000" stroke-width="1" x1="30" x2="30" y1="25.6" y2="149.4" class="agent-5-line"></line><line fill="none" stroke="#000000" stroke-width="1" x1="68.00291061401367" x2="68.00291061401367" y1="149.4" y2="171.4" class="agent-6-line"></line></g><g><g><g><path d="M21.496621131896973 35.6L21.496621131896973 46.300000000000004L19.496621131896973 48.300000000000004L10 48.300000000000004L10 35.6" fill="#FFFFFF" stroke="none" stroke-width="1" rx="2" ry="2"></path><path d="M21.496621131896973 35.6L21.496621131896973 46.300000000000004L19.496621131896973 48.300000000000004L10 48.300000000000004" fill="none" stroke="#000000" stroke-width="1" rx="2" ry="2"></path></g><rect fill="none" stroke="#000000" stroke-width="1.5" rx="2" ry="2" height="32.70000000000001" width="68.00291061401367" x="10" y="35.6"></rect></g><g><g><path d="M43.008588790893555 78.30000000000001L43.008588790893555 89.00000000000001L41.008588790893555 91.00000000000001L10 91.00000000000001L10 78.30000000000001" fill="#FFFFFF" stroke="none" stroke-width="1" rx="2" ry="2"></path><path d="M43.008588790893555 78.30000000000001L43.008588790893555 89.00000000000001L41.008588790893555 91.00000000000001L10 91.00000000000001" fill="none" stroke="#000000" stroke-width="1" rx="2" ry="2"></path></g><rect fill="none" stroke="#000000" stroke-width="1.5" rx="2" ry="2" height="45.400000000000006" width="82.00291061401367" x="10" y="78.30000000000001"></rect></g><g><g><path d="M31.496621131896973 94.00000000000001L31.496621131896973 104.70000000000002L29.496621131896973 106.70000000000002L20 106.70000000000002L20 94.00000000000001" fill="#FFFFFF" stroke="none" stroke-width="1" rx="2" ry="2"></path><path d="M31.496621131896973 94.00000000000001L31.496621131896973 104.70000000000002L29.496621131896973 106.70000000000002L20 106.70000000000002" fill="none" stroke="#000000" stroke-width="1" rx="2" ry="2"></path></g><rect fill="none" stroke="#000000" stroke-width="1.5" rx="2" ry="2" height="17.700000000000003" width="62.00291061401367" x="20" y="94.00000000000001"></rect></g><g><g><path d="M31.496621131896973 133.70000000000002L31.496621131896973 144.4L29.496621131896973 146.4L20 146.4L20 133.70000000000002" fill="#FFFFFF" stroke="none" stroke-width="1" rx="2" ry="2"></path><path d="M31.496621131896973 133.70000000000002L31.496621131896973 144.4L29.496621131896973 146.4L20 146.4" fill="none" stroke="#000000" stroke-width="1" rx="2" ry="2"></path></g><rect fill="none" stroke="#000000" stroke-width="1.5" rx="2" ry="2" height="17.69999999999999" width="62.00291061401367" x="20" y="133.70000000000002"></rect></g></g><g><g class="region"><g><rect fill="#FFFFFF" stroke="#000000" stroke-width="1" height="25.6" width="28.002910614013672" x="15.998544692993164" y="0"></rect><g><text x="30" font-family="Helvetica,Arial,Liberation Sans,sans-serif" font-size="12" line-height="1.3" text-anchor="middle" y="17">A</text></g></g><rect class="outline" fill="transparent" height="25.6" width="28.002910614013672" x="15.998544692993164" y="0"></rect></g><g class="region"><g><rect fill="#FFFFFF" stroke="#000000" stroke-width="1" height="25.6" width="28.002910614013672" x="54.001455307006836" y="0"></rect><g><text x="68.00291061401367" font-family="Helvetica,Arial,Liberation Sans,sans-serif" font-size="12" line-height="1.3" text-anchor="middle" y="17">B</text></g></g><rect class="outline" fill="transparent" height="25.6" width="28.002910614013672" x="54.001455307006836" y="0"></rect></g><g class="region expanded"><rect class="outline" fill="transparent" height="12.700000000000001" width="68.00291061401367" x="10" y="35.6"></rect><g><text x="13" font-family="Helvetica,Arial,Liberation Sans,sans-serif" font-weight="bold" font-size="9" line-height="1.3" text-anchor="left" y="45.6">if</text></g><g><text x="26.496621131896973" font-family="Helvetica,Arial,Liberation Sans,sans-serif" font-size="8" line-height="1.3" text-anchor="left" y="44.6">Abc</text></g></g><g class="region"><path d="M30 56.300000000000004L65.00291061401367 56.300000000000004" fill="none" stroke="#000000" stroke-width="1"></path><polygon points="62.50291061401367 61.300000000000004 67.50291061401367 56.300000000000004 62.50291061401367 51.300000000000004" fill="#000000" stroke-width="0" stroke-linejoin="miter"></polygon><path class="outline" fill="transparent" d="M30,51.300000000000004L68.00291061401367,51.300000000000004L68.00291061401367,61.300000000000004L30,61.300000000000004Z"></path></g><g class="region expanded"><rect class="outline" fill="transparent" height="12.700000000000001" width="82.00291061401367" x="10" y="78.30000000000001"></rect><g><text x="13" font-family="Helvetica,Arial,Liberation Sans,sans-serif" font-weight="bold" font-size="9" line-height="1.3" text-anchor="left" y="88.30000000000001">repeat</text></g></g><g class="region collapsed"><rect class="outline" fill="transparent" height="12.700000000000001" width="62.00291061401367" x="20" y="94.00000000000001"></rect><g><text x="23" font-family="Helvetica,Arial,Liberation Sans,sans-serif" font-weight="bold" font-size="9" line-height="1.3" text-anchor="left" y="104.00000000000001">if</text></g></g><g class="region collapsed"><rect class="outline" fill="transparent" height="12.700000000000001" width="62.00291061401367" x="20" y="133.70000000000002"></rect><g><text x="23" font-family="Helvetica,Arial,Liberation Sans,sans-serif" font-weight="bold" font-size="9" line-height="1.3" text-anchor="left" y="143.70000000000002">if</text></g><g><text x="36.49662113189697" font-family="Helvetica,Arial,Liberation Sans,sans-serif" font-size="8" line-height="1.3" text-anchor="left" y="142.70000000000002">Abc</text></g></g><g class="region"><rect class="outline" fill="transparent" height="10" width="10" x="63.00291061401367" y="161.4"></rect></g></g></g></svg>