<svg width="96.00749397277832" height="70.6"  xmlns="http://www.w3.org/2000/svg" version="1.1" viewBox="-5 -5 96.00749397277832 70.6"><metadata>A -&gt; B
</metadata><defs></defs><defs><mask id="R0FullMask" maskUnits="userSpaceOnUse"><rect fill="#FFFFFF" height="70.6" width="96.00749397277832" x="-5" y="-5"></rect></mask><mask id="R0LineMask" maskUnits="userSpaceOnUse"><rect fill="#FFFFFF" height="70.6" width="96.00749397277832" x="-5" y="-5"></rect></mask></defs><g></g><g></g><g></g><g mask="url(#R0FullMask)"><g mask="url(#R0LineMask)"><line fill="none" stroke="#000000" stroke-width="1" x1="24.00187349319458" x2="24.00187349319458" y1="25.6" y2="60.6" class="agent-1-line"></line><line fill="none" stroke="#000000" stroke-width="1" x1="62.00562047958374" x2="62.00562047958374" y1="25.6" y2="60.6" class="agent-2-line"></line></g><g></g><g><g class="region"><g><rect fill="#FFFFFF" stroke="#000000" stroke-width="1" height="25.6" width="28.00374698638916" x="10" y="0"></rect><g><text x="24.00187349319458" font-family="Helvetica,Arial,Liberation Sans,sans-serif" font-size="12" line-height="1.3" text-anchor="middle" y="17">A</text></g></g><rect class="outline" fill="transparent" height="25.6" width="28.00374698638916" x="10" y="0"></rect></g><g class="region"><g><rect fill="#FFFFFF" stroke="#000000" stroke-width="1" height="25.6" width="28.00374698638916" x="48.00374698638916" y="0"></rect><g><text x="62.00562047958374" font-family="Helvetica,Arial,Liberation Sans,sans-serif" font-size="12" line-height="1.3" text-anchor="middle" y="17">B</text></g></g><rect class="outline" fill="transparent" height="25.6" width="28.00374698638916" x="48.00374698638916" y="0"></rect></g><g class="region"><path d="M24.00187349319458 40.6L59.00562047958374 40.6" fill="none" stroke="#000000" stroke-width="1"></path><polygon points="56.50562047958374 45.6 61.50562047958374 40.6 56.50562047958374 35.6" fill="#000000" stroke-width="0" stroke-linejoin="miter"></polygon><path class="outline" fill="transparent" d="M24.00187349319458,35.6L62.00562047958374,35.6L62.00562047958374,45.6L24.00187349319458,45.6Z"></path></g><g class="region"><rect class="outline" fill="transparent" height="10" width="10" x="19.00187349319458" y="50.6"></rect></g><g class="region"><rect class="outline" fill="transparent" height="10" width="10" x="57.00562047958374" y="50.6"></rect></g></g></g></svg>