<svg width="96.00716400146484" height="70.6"  xmlns="http://www.w3.org/2000/svg" version="1.1" viewBox="-5 -5 96.00716400146484 70.6"><metadata>A -&gt; B
</metadata><defs></defs><defs><mask id="R0LineMask" maskUnits="userSpaceOnUse"><rect fill="#FFFFFF" x="-5" y="-5" width="96.00716400146484" height="70.6"></rect></mask></defs><g mask="url(#R0LineMask)"><line x1="24.00179100036621" y1="25.6" x2="24.00179100036621" y2="60.6" class="agent-1-line" fill="none" stroke="#000000" stroke-width="1"></line><line x1="62.00537300109863" y1="25.6" x2="62.00537300109863" y2="60.6" class="agent-2-line" fill="none" stroke="#000000" stroke-width="1"></line></g><g></g><g><rect x="10" y="0" width="28.003582000732422" height="25.6" fill="#FFFFFF" stroke="#000000" stroke-width="1"></rect><rect x="48.00358200073242" y="0" width="28.003582000732422" height="25.6" fill="#FFFFFF" stroke="#000000" stroke-width="1"></rect><path d="M24.00179100036621 40.6L59.00537300109863 40.6" fill="none" stroke="#000000" stroke-width="1"></path><polygon points="56.50537300109863 45.6 61.50537300109863 40.6 56.50537300109863 35.6" fill="#000000" stroke-width="0" stroke-linejoin="miter"></polygon></g><g><g class="region"><rect x="10" y="0" width="28.003582000732422" height="25.6" fill="transparent" class="outline"></rect><text x="24.00179100036621" font-family="sans-serif" font-size="12" line-height="1.3" text-anchor="middle" y="17">A</text></g><g class="region"><rect x="48.00358200073242" y="0" width="28.003582000732422" height="25.6" fill="transparent" class="outline"></rect><text x="62.00537300109863" font-family="sans-serif" font-size="12" line-height="1.3" text-anchor="middle" y="17">B</text></g><g class="region"><path d="M24.00179100036621,35.6L62.00537300109863,35.6L62.00537300109863,45.6L24.00179100036621,45.6Z" fill="transparent" class="outline"></path></g><g class="region"><rect x="19.00179100036621" y="50.6" width="10" height="10" fill="transparent" class="outline"></rect></g><g class="region"><rect x="57.00537300109863" y="50.6" width="10" height="10" fill="transparent" class="outline"></rect></g></g></svg>