<svg width="116.0075511932373" height="206.4"  xmlns="http://www.w3.org/2000/svg" version="1.1" viewBox="-15 -5 116.0075511932373 206.4"><metadata>A -&gt; +B
divider space: wait
divider line: wait
divider delay: wait
divider tear with height 20: wait
simultaneously:
-B -&gt; A
</metadata><defs></defs><defs><mask id="R0FullMask" maskUnits="userSpaceOnUse"><rect fill="#FFFFFF" height="206.4" width="116.0075511932373" x="-15" y="-5"></rect><rect fill="#000000" height="14.4" width="24.22632884979248" x="30.890611171722412" y="48.6"></rect><rect fill="#000000" height="14.4" width="24.22632884979248" x="30.890611171722412" y="69"></rect><rect fill="#000000" height="14.4" width="24.22632884979248" x="30.890611171722412" y="99.2"></rect><g><rect fill="#000000" height="2" width="86.0075511932373" x="0" y="91.4"></rect><rect fill="#000000" height="2" width="86.0075511932373" x="0" y="94.4"></rect><rect fill="#000000" height="2" width="86.0075511932373" x="0" y="97.4"></rect><rect fill="#000000" height="2" width="86.0075511932373" x="0" y="100.4"></rect><rect fill="#000000" height="2" width="86.0075511932373" x="0" y="103.4"></rect><rect fill="#000000" height="2" width="86.0075511932373" x="0" y="106.4"></rect><rect fill="#000000" height="2" width="86.0075511932373" x="0" y="109.4"></rect><rect fill="#000000" height="2" width="86.0075511932373" x="0" y="112.4"></rect><rect fill="#000000" height="2" width="86.0075511932373" x="0" y="115.4"></rect><rect fill="#000000" height="2" width="86.0075511932373" x="0" y="118.4"></rect></g><rect fill="#000000" height="14.4" width="24.22632884979248" x="30.890611171722412" y="139.20000000000002"></rect><path d="M-10 137.4L-7 135.4L-4 137.4L-1 135.4L2 137.4L5 135.4L8 137.4L11 135.4L14 137.4L17 135.4L20 137.4L23 135.4L26 137.4L29 135.4L32 137.4L35 135.4L38 137.4L41 135.4L44 137.4L47 135.4L50 137.4L53 135.4L56 137.4L59 135.4L62 137.4L65 135.4L68 137.4L71 135.4L74 137.4L77 135.4L80 137.4L83 135.4L86 137.4L89 135.4L92 137.4L96.0075511932373 156.4L92 157.4L89 155.4L86 157.4L83 155.4L80 157.4L77 155.4L74 157.4L71 155.4L68 157.4L65 155.4L62 157.4L59 155.4L56 157.4L53 155.4L50 157.4L47 155.4L44 157.4L41 155.4L38 157.4L35 155.4L32 157.4L29 155.4L26 157.4L23 155.4L20 157.4L17 155.4L14 157.4L11 155.4L8 157.4L5 155.4L2 157.4L-1 155.4L-4 157.4L-7 155.4L-10 157.4" fill="#000000"></path></mask><mask id="R0LineMask" maskUnits="userSpaceOnUse"><rect fill="#FFFFFF" height="206.4" width="116.0075511932373" x="-15" y="-5"></rect></mask><linearGradient id="R0tear-grad"><stop offset="4.716645129256578%" stop-color="#000000"></stop><stop offset="14.149935387769732%" stop-color="#FFFFFF"></stop><stop offset="85.85006461223027%" stop-color="#FFFFFF"></stop><stop offset="95.28335487074342%" stop-color="#000000"></stop></linearGradient><mask maskUnits="userSpaceOnUse" id="R0P1"><rect fill="url(#R0tear-grad)" height="30" width="106.0075511932373" x="-10" y="131.4"></rect><rect fill="#000000" rx="2" ry="2" height="12.4" width="24.22632884979248" x="30.890611171722412" y="140.20000000000002"></rect></mask></defs><g></g><g></g><g><g class="region"><rect class="outline" fill="transparent" height="10.4" width="86.0075511932373" x="0" y="50.6"></rect><g><text x="43.00377559661865" font-family="Helvetica,Arial,Liberation Sans,sans-serif" font-size="8" line-height="1.3" text-anchor="middle" y="58.6">wait</text></g></g><g class="region"><rect class="outline" fill="transparent" height="10.4" width="106.0075511932373" x="-10" y="71"></rect><g><line fill="none" x1="-10" x2="30.890611171722412" y1="76.2" y2="76.2" stroke="#000000"></line><line fill="none" x1="55.11694002151489" x2="96.0075511932373" y1="76.2" y2="76.2" stroke="#000000"></line></g><g><text x="43.00377559661865" font-family="Helvetica,Arial,Liberation Sans,sans-serif" font-size="8" line-height="1.3" text-anchor="middle" y="79">wait</text></g></g><g class="region"><rect class="outline" fill="transparent" height="30" width="86.0075511932373" x="0" y="91.4"></rect><g><text x="43.00377559661865" font-family="Helvetica,Arial,Liberation Sans,sans-serif" font-size="8" line-height="1.3" text-anchor="middle" y="109.2">wait</text></g></g><g class="region"><rect class="outline" fill="transparent" height="30" width="106.0075511932373" x="-10" y="131.4"></rect><g mask="url(#R0P1)"><path d="M-10 137.4L-7 135.4L-4 137.4L-1 135.4L2 137.4L5 135.4L8 137.4L11 135.4L14 137.4L17 135.4L20 137.4L23 135.4L26 137.4L29 135.4L32 137.4L35 135.4L38 137.4L41 135.4L44 137.4L47 135.4L50 137.4L53 135.4L56 137.4L59 135.4L62 137.4L65 135.4L68 137.4L71 135.4L74 137.4L77 135.4L80 137.4L83 135.4L86 137.4L89 135.4L92 137.4" fill="none" stroke="#000000"></path><path d="M-10 157.4L-7 155.4L-4 157.4L-1 155.4L2 157.4L5 155.4L8 157.4L11 155.4L14 157.4L17 155.4L20 157.4L23 155.4L26 157.4L29 155.4L32 157.4L35 155.4L38 157.4L41 155.4L44 157.4L47 155.4L50 157.4L53 155.4L56 157.4L59 155.4L62 157.4L65 155.4L68 157.4L71 155.4L74 157.4L77 155.4L80 157.4L83 155.4L86 157.4L89 155.4L92 157.4" fill="none" stroke="#000000"></path></g><g><text x="43.00377559661865" font-family="Helvetica,Arial,Liberation Sans,sans-serif" font-size="8" line-height="1.3" text-anchor="middle" y="149.20000000000002">wait</text></g></g></g><g mask="url(#R0FullMask)"><g mask="url(#R0LineMask)"><line fill="none" stroke="#000000" stroke-width="1" x1="62.00566339492798" x2="62.00566339492798" y1="25.6" y2="40.6" class="agent-2-line"></line><rect fill="none" stroke="#000000" stroke-width="1" height="135.8" width="8" x="58.00566339492798" y="40.6" class="agent-2-line"></rect><line fill="none" stroke="#000000" stroke-width="1" x1="24.001887798309326" x2="24.001887798309326" y1="25.6" y2="196.4" class="agent-1-line"></line><line fill="none" stroke="#000000" stroke-width="1" x1="62.00566339492798" x2="62.00566339492798" y1="176.4" y2="196.4" class="agent-2-line"></line></g><g></g><g><g class="region"><g><rect fill="#FFFFFF" stroke="#000000" stroke-width="1" height="25.6" width="28.003775596618652" x="10" y="0"></rect><g><text x="24.001887798309326" font-family="Helvetica,Arial,Liberation Sans,sans-serif" font-size="12" line-height="1.3" text-anchor="middle" y="17">A</text></g></g><rect class="outline" fill="transparent" height="25.6" width="28.003775596618652" x="10" y="0"></rect></g><g class="region"><g><rect fill="#FFFFFF" stroke="#000000" stroke-width="1" height="25.6" width="28.003775596618652" x="48.00377559661865" y="0"></rect><g><text x="62.00566339492798" font-family="Helvetica,Arial,Liberation Sans,sans-serif" font-size="12" line-height="1.3" text-anchor="middle" y="17">B</text></g></g><rect class="outline" fill="transparent" height="25.6" width="28.003775596618652" x="48.00377559661865" y="0"></rect></g><g class="region"><path d="M24.001887798309326 40.6L55.00566339492798 40.6" fill="none" stroke="#000000" stroke-width="1"></path><polygon points="52.50566339492798 45.6 57.50566339492798 40.6 52.50566339492798 35.6" fill="#000000" stroke-width="0" stroke-linejoin="miter"></polygon><path class="outline" fill="transparent" d="M24.001887798309326,35.6L58.00566339492798,35.6L58.00566339492798,45.6L24.001887798309326,45.6Z"></path></g><g class="region"><path d="M58.00566339492798 176.4L27.001887798309326 176.4" fill="none" stroke="#000000" stroke-width="1"></path><polygon points="29.501887798309326 171.4 24.501887798309326 176.4 29.501887798309326 181.4" fill="#000000" stroke-width="0" stroke-linejoin="miter"></polygon><path class="outline" fill="transparent" d="M58.00566339492798,171.4L24.001887798309326,171.4L24.001887798309326,181.4L58.00566339492798,181.4Z"></path></g><g class="region"><rect class="outline" fill="transparent" height="10" width="10" x="19.001887798309326" y="186.4"></rect></g><g class="region"><rect class="outline" fill="transparent" height="10" width="10" x="57.00566339492798" y="186.4"></rect></g></g></g></svg>