<svg width="150.45481824874878" height="279.20000000000005"  xmlns="http://www.w3.org/2000/svg" version="1.1" viewBox="-15 -5 150.45481824874878 279.20000000000005"><metadata>begin A, B

if
begin reference over A: C as C
B -&gt; ...self
A -&gt; ...lin

divider tear with height 20: tear
sim:
...lin -&gt; B: Link

simultaneously with sim:
A -&gt; ...lin
divider delay with height 20: delay
...lin -&gt; B: Link

...self -&gt; B
end C
end
</metadata><defs></defs><defs><mask id="R0FullMask" maskUnits="userSpaceOnUse"><rect fill="#FFFFFF" height="279.20000000000005" width="150.45481824874878" x="-15" y="-5"></rect><rect fill="#000000" height="14.4" width="23.783780097961426" x="48.33551907539368" y="111.2"></rect><path d="M-10 109.4L-7 107.4L-4 109.4L-1 107.4L2 109.4L5 107.4L8 109.4L11 107.4L14 109.4L17 107.4L20 109.4L23 107.4L26 109.4L29 107.4L32 109.4L35 107.4L38 109.4L41 107.4L44 109.4L47 107.4L50 109.4L53 107.4L56 109.4L59 107.4L62 109.4L65 107.4L68 109.4L71 107.4L74 109.4L77 107.4L80 109.4L83 107.4L86 109.4L89 107.4L92 109.4L95 107.4L98 109.4L101 107.4L104 109.4L107 107.4L110 109.4L113 107.4L116 109.4L119 107.4L122 109.4L125 107.4L130.45481824874878 128.4L125 127.4L122 129.4L119 127.4L116 129.4L113 127.4L110 129.4L107 127.4L104 129.4L101 127.4L98 129.4L95 127.4L92 129.4L89 127.4L86 129.4L83 127.4L80 129.4L77 127.4L74 129.4L71 127.4L68 129.4L65 127.4L62 129.4L59 127.4L56 129.4L53 127.4L50 129.4L47 127.4L44 129.4L41 127.4L38 129.4L35 127.4L32 129.4L29 127.4L26 129.4L23 127.4L20 129.4L17 127.4L14 129.4L11 127.4L8 129.4L5 127.4L2 129.4L-1 127.4L-4 129.4L-7 127.4L-10 129.4" fill="#000000"></path><rect fill="#000000" height="14.4" width="29.123092651367188" x="45.665862798690796" y="169.60000000000002"></rect><g><rect fill="#000000" height="2" width="120.45481824874878" x="0" y="166.8"></rect><rect fill="#000000" height="2" width="120.45481824874878" x="0" y="169.8"></rect><rect fill="#000000" height="2" width="120.45481824874878" x="0" y="172.8"></rect><rect fill="#000000" height="2" width="120.45481824874878" x="0" y="175.8"></rect><rect fill="#000000" height="2" width="120.45481824874878" x="0" y="178.8"></rect><rect fill="#000000" height="2" width="120.45481824874878" x="0" y="181.8"></rect><rect fill="#000000" height="2" width="120.45481824874878" x="0" y="184.8"></rect></g></mask><mask id="R0LineMask" maskUnits="userSpaceOnUse"><rect fill="#FFFFFF" height="279.20000000000005" width="150.45481824874878" x="-15" y="-5"></rect><rect fill="#000000" height="12.4" width="13.776767253875732" x="37.50373363494873" y="51.300000000000004"></rect><rect fill="#000000" transform="rotate(59.27985773963009 70.11765956878662,125.10000000000001)" height="11.4" width="20.674317359924316" x="59.78050088882446" y="113.7"></rect><rect fill="#000000" transform="rotate(54.7965890708117 70.11765956878662,183.5)" height="11.4" width="20.674317359924316" x="59.78050088882446" y="172.1"></rect><rect fill="#000000" stroke="none" stroke-width="1.5" rx="2" ry="2" height="185.9" width="31.280500888824463" x="20" y="51.300000000000004"></rect></mask><linearGradient id="R0tear-grad"><stop offset="3.5598636361088607%" stop-color="#000000"></stop><stop offset="10.679590908326583%" stop-color="#FFFFFF"></stop><stop offset="89.32040909167341%" stop-color="#FFFFFF"></stop><stop offset="96.44013636389114%" stop-color="#000000"></stop></linearGradient><mask maskUnits="userSpaceOnUse" id="R0P1"><rect fill="url(#R0tear-grad)" height="30" width="140.45481824874878" x="-10" y="103.4"></rect><rect fill="#000000" rx="2" ry="2" height="12.4" width="23.783780097961426" x="48.33551907539368" y="112.2"></rect></mask></defs><g><rect fill="#FFFFFF" stroke="none" stroke-width="1.5" rx="2" ry="2" height="185.9" width="31.280500888824463" x="20" y="51.300000000000004"></rect></g><g></g><g><g class="region"><rect class="outline" fill="transparent" height="30" width="140.45481824874878" x="-10" y="103.4"></rect><g mask="url(#R0P1)"><path d="M-10 109.4L-7 107.4L-4 109.4L-1 107.4L2 109.4L5 107.4L8 109.4L11 107.4L14 109.4L17 107.4L20 109.4L23 107.4L26 109.4L29 107.4L32 109.4L35 107.4L38 109.4L41 107.4L44 109.4L47 107.4L50 109.4L53 107.4L56 109.4L59 107.4L62 109.4L65 107.4L68 109.4L71 107.4L74 109.4L77 107.4L80 109.4L83 107.4L86 109.4L89 107.4L92 109.4L95 107.4L98 109.4L101 107.4L104 109.4L107 107.4L110 109.4L113 107.4L116 109.4L119 107.4L122 109.4L125 107.4" fill="none" stroke="#000000"></path><path d="M-10 129.4L-7 127.4L-4 129.4L-1 127.4L2 129.4L5 127.4L8 129.4L11 127.4L14 129.4L17 127.4L20 129.4L23 127.4L26 129.4L29 127.4L32 129.4L35 127.4L38 129.4L41 127.4L44 129.4L47 127.4L50 129.4L53 127.4L56 129.4L59 127.4L62 129.4L65 127.4L68 129.4L71 127.4L74 129.4L77 127.4L80 129.4L83 127.4L86 129.4L89 127.4L92 129.4L95 127.4L98 129.4L101 127.4L104 129.4L107 127.4L110 129.4L113 127.4L116 129.4L119 127.4L122 129.4L125 127.4" fill="none" stroke="#000000"></path></g><g><text x="60.22740912437439" font-family="Helvetica,Arial,Liberation Sans,sans-serif" font-size="8" line-height="1.3" text-anchor="middle" y="121.2">tear</text></g></g><g class="region"><rect class="outline" fill="transparent" height="20" width="120.45481824874878" x="0" y="166.8"></rect><g><text x="60.22740912437439" font-family="Helvetica,Arial,Liberation Sans,sans-serif" font-size="8" line-height="1.3" text-anchor="middle" y="179.60000000000002">delay</text></g></g></g><g mask="url(#R0FullMask)"><g mask="url(#R0LineMask)"><line fill="none" stroke="#000000" stroke-width="1" x1="30" x2="30" y1="25.6" y2="269.20000000000005" class="agent-3-line"></line><line fill="none" stroke="#000000" stroke-width="1" x1="88.95481824874878" x2="88.95481824874878" y1="25.6" y2="269.20000000000005" class="agent-5-line"></line></g><g><g><g><path d="M21.497008323669434 35.6L21.497008323669434 46.300000000000004L19.497008323669434 48.300000000000004L10 48.300000000000004L10 35.6" fill="#FFFFFF" stroke="none" stroke-width="1" rx="2" ry="2"></path><path d="M21.497008323669434 35.6L21.497008323669434 46.300000000000004L19.497008323669434 48.300000000000004L10 48.300000000000004" fill="none" stroke="#000000" stroke-width="1" rx="2" ry="2"></path></g><rect fill="none" stroke="#000000" stroke-width="1.5" rx="2" ry="2" height="213.60000000000002" width="100.45481824874878" x="10" y="35.6"></rect></g><g><g><path d="M37.50373363494873 51.300000000000004L37.50373363494873 62L35.50373363494873 64L20 64L20 51.300000000000004" fill="#FFFFFF" stroke="none" stroke-width="1" rx="2" ry="2"></path><path d="M37.50373363494873 51.300000000000004L37.50373363494873 62L35.50373363494873 64L20 64" fill="none" stroke="#000000" stroke-width="1" rx="2" ry="2"></path></g><rect fill="none" stroke="#000000" stroke-width="1.5" rx="2" ry="2" height="185.9" width="31.280500888824463" x="20" y="51.300000000000004"></rect></g></g><g><g class="region"><g><rect fill="#FFFFFF" stroke="#000000" stroke-width="1" height="25.6" width="28.003106117248535" x="15.998446941375732" y="0"></rect><g><text x="30" font-family="Helvetica,Arial,Liberation Sans,sans-serif" font-size="12" line-height="1.3" text-anchor="middle" y="17">A</text></g></g><rect class="outline" fill="transparent" height="25.6" width="28.003106117248535" x="15.998446941375732" y="0"></rect></g><g class="region"><g><rect fill="#FFFFFF" stroke="#000000" stroke-width="1" height="25.6" width="28.003106117248535" x="74.95326519012451" y="0"></rect><g><text x="88.95481824874878" font-family="Helvetica,Arial,Liberation Sans,sans-serif" font-size="12" line-height="1.3" text-anchor="middle" y="17">B</text></g></g><rect class="outline" fill="transparent" height="25.6" width="28.003106117248535" x="74.95326519012451" y="0"></rect></g><g class="region expanded"><rect class="outline" fill="transparent" height="12.700000000000001" width="100.45481824874878" x="10" y="35.6"></rect><g><text x="13" font-family="Helvetica,Arial,Liberation Sans,sans-serif" font-weight="bold" font-size="9" line-height="1.3" text-anchor="left" y="45.6">if</text></g></g><g class="region"><rect class="outline" fill="transparent" height="12.700000000000001" width="31.280500888824463" x="20" y="51.300000000000004"></rect><g><text x="23" font-family="Helvetica,Arial,Liberation Sans,sans-serif" font-weight="bold" font-size="9" line-height="1.3" text-anchor="left" y="61.300000000000004">ref</text></g><g><text x="42.50373363494873" font-family="Helvetica,Arial,Liberation Sans,sans-serif" font-size="8" line-height="1.3" text-anchor="left" y="60.300000000000004">C</text></g></g><g class="region"><path d="M51.28050088882446 93.4L87.4222827496716 154.22098178679013" fill="none" stroke="#000000" stroke-width="1"></path><polygon points="81.84680614509081 154.6260257742439 88.69939566556924 156.3701636311317 90.44353352245706 149.51757411065327" fill="#000000" stroke-width="0" stroke-linejoin="miter"></polygon><path class="outline" fill="transparent" d="M51.28050088882446,80L88.95481824874878,143.4L88.95481824874878,161.8L51.28050088882446,98.4Z"></path><g transform="rotate(59.27985773963009 70.11765956878662,125.10000000000001)"><g><text x="70.11765956878662" font-family="Helvetica,Arial,Liberation Sans,sans-serif" font-size="8" line-height="1.3" text-anchor="middle" y="121.7">Link</text></g></g></g><g class="region"><path d="M51.28050088882446 156.8L87.22537536462869 207.74866825774922" fill="none" stroke="#000000" stroke-width="1"></path><polygon points="81.69862005744392 208.58829661274035 88.6665777680621 209.79144470962487 89.86972586494662 202.82348699900672" fill="#000000" stroke-width="0" stroke-linejoin="miter"></polygon><path class="outline" fill="transparent" d="M51.28050088882446,143.4L88.95481824874878,196.8L88.95481824874878,215.20000000000002L51.28050088882446,161.8Z"></path><g transform="rotate(54.7965890708117 70.11765956878662,183.5)"><g><text x="70.11765956878662" font-family="Helvetica,Arial,Liberation Sans,sans-serif" font-size="8" line-height="1.3" text-anchor="middle" y="180.1">Link</text></g></g></g><g class="region"><rect class="outline" fill="transparent" height="158.20000000000002" width="12" x="88.95481824874878" y="67"></rect><path d="M88.95481824874878 70L94.95481824874878 70A6 6 0 0 1 100.95481824874878 76L100.95481824874878 214.20000000000002A6 6 0 0 1 94.95481824874878 220.20000000000002L91.95481824874878 220.20000000000002" fill="none" stroke="#000000" stroke-width="1"></path><polygon points="94.45481824874878 215.20000000000002 89.45481824874878 220.20000000000002 94.45481824874878 225.20000000000002" fill="#000000" stroke-width="0" stroke-linejoin="miter"></polygon></g><g class="region"><rect class="outline" fill="transparent" height="10" width="10" x="25" y="259.20000000000005"></rect></g><g class="region"><rect class="outline" fill="transparent" height="10" width="10" x="83.95481824874878" y="259.20000000000005"></rect></g></g></g></svg>