<svg width="124.48876953125" height="123.80000000000001" xmlns="http://www.w3.org/2000/svg" version="1.1" viewBox="-5 -5 124.48876953125 123.80000000000001"><metadata>begin A, B, C, D

A ~- B: abc123
&amp; C -~ D: abc123

A ~-~ B
&amp; C ~~~ D

A ~~&gt; B
&amp; C &lt;~~ D

A ~-&gt; ...a
&amp; C &lt;-~ ...c
...a -&gt; A: a
&amp; ...c &lt;-~ C: a

headers fade
terminators fade
</metadata><defs></defs><defs><mask id="R0FullMask" maskUnits="userSpaceOnUse"><rect fill="#FFFFFF" height="123.80000000000001" width="124.48876953125" x="-5" y="-5"></rect></mask><mask id="R0LineMask" maskUnits="userSpaceOnUse"><rect fill="#FFFFFF" height="123.80000000000001" width="124.48876953125" x="-5" y="-5"></rect><rect fill="url(#R0FadeIn)" height="7" width="5" x="7.5" y="-1"></rect><rect fill="url(#R0FadeIn)" height="7" width="5" x="49.744384765625" y="-1"></rect><rect fill="url(#R0FadeIn)" height="7" width="5" x="59.744384765625" y="-1"></rect><rect fill="url(#R0FadeIn)" height="7" width="5" x="101.98876953125" y="-1"></rect><rect fill="#000000" height="11.4" width="32.244384765625" x="15" y="18"></rect><rect fill="#000000" height="11.4" width="32.244384765625" x="67.244384765625" y="18"></rect><rect fill="#000000" height="11.4" width="10.448928833007812" x="15" y="69.4"></rect><rect fill="#000000" height="11.4" width="10.448928833007812" x="70.744384765625" y="69.4"></rect><rect fill="url(#R0FadeOut)" height="7" width="5" x="7.5" y="107.80000000000001"></rect><rect fill="url(#R0FadeOut)" height="7" width="5" x="49.744384765625" y="107.80000000000001"></rect><rect fill="url(#R0FadeOut)" height="7" width="5" x="59.744384765625" y="107.80000000000001"></rect><rect fill="url(#R0FadeOut)" height="7" width="5" x="101.98876953125" y="107.80000000000001"></rect></mask><linearGradient x1="0%" x2="0%" y1="100%" y2="0%" id="R0FadeIn"><stop offset="0%" stop-color="#FFFFFF"></stop><stop offset="85.714%" stop-color="#000000"></stop></linearGradient><linearGradient id="R0arrowFadeL"><stop offset="19.230769230769234%" stop-color="#000000"></stop><stop offset="80.76923076923077%" stop-color="#FFFFFF"></stop></linearGradient><mask maskUnits="userSpaceOnUse" id="R0P2"><rect fill="#FFFFFF" height="10" width="52.244384765625" x="5" y="24.4"></rect><rect fill="url(#R0arrowFadeL)" height="10" width="26" x="7" y="24.4"></rect></mask><linearGradient id="R0arrowFadeR"><stop offset="19.230769230769234%" stop-color="#FFFFFF"></stop><stop offset="80.76923076923077%" stop-color="#000000"></stop></linearGradient><mask maskUnits="userSpaceOnUse" id="R0P4"><rect fill="#FFFFFF" height="10" width="52.244384765625" x="57.244384765625" y="24.4"></rect><rect fill="url(#R0arrowFadeR)" height="10" width="26" x="81.48876953125" y="24.4"></rect></mask><mask maskUnits="userSpaceOnUse" id="R0P5"><rect fill="#FFFFFF" height="10" width="52.244384765625" x="5" y="37.4"></rect><rect fill="url(#R0arrowFadeL)" height="10" width="26" x="7" y="37.4"></rect><rect fill="url(#R0arrowFadeR)" height="10" width="26" x="29.244384765625" y="37.4"></rect></mask><mask maskUnits="userSpaceOnUse" id="R0P6"><rect fill="#FFFFFF" height="10" width="52.244384765625" x="57.244384765625" y="37.4"></rect><rect fill="url(#R0arrowFadeL)" height="10" width="26" x="59.244384765625" y="37.4"></rect><rect fill="url(#R0arrowFadeR)" height="10" width="26" x="81.48876953125" y="37.4"></rect></mask><mask maskUnits="userSpaceOnUse" id="R0P7"><rect fill="#FFFFFF" height="10" width="52.244384765625" x="5" y="52.4"></rect><rect fill="url(#R0arrowFadeL)" height="10" width="26" x="7" y="52.4"></rect></mask><mask maskUnits="userSpaceOnUse" id="R0P8"><rect fill="#FFFFFF" height="10" width="52.244384765625" x="57.244384765625" y="52.4"></rect><rect fill="url(#R0arrowFadeR)" height="10" width="26" x="81.48876953125" y="52.4"></rect></mask><mask maskUnits="userSpaceOnUse" id="R0P9"><rect fill="#FFFFFF" height="22" width="34.44892883300781" x="5" y="75.80000000000001"></rect><rect fill="url(#R0arrowFadeL)" height="10" width="26" x="7" y="75.80000000000001"></rect></mask><mask maskUnits="userSpaceOnUse" id="R0P10"><rect fill="#FFFFFF" height="22" width="37.94892883300781" x="57.244384765625" y="75.80000000000001"></rect><rect fill="url(#R0arrowFadeL)" height="10" width="26" x="59.244384765625" y="87.80000000000001"></rect></mask><linearGradient x1="0%" x2="0%" y1="0%" y2="100%" id="R0FadeOut"><stop offset="0%" stop-color="#FFFFFF"></stop><stop offset="85.714%" stop-color="#000000"></stop></linearGradient></defs><g></g><g></g><g></g><g mask="url(#R0FullMask)"><g mask="url(#R0LineMask)"><line fill="none" stroke="#000000" stroke-width="1" x1="10" x2="10" y1="0" y2="113.80000000000001" class="agent-1-line"></line><line fill="none" stroke="#000000" stroke-width="1" x1="52.244384765625" x2="52.244384765625" y1="0" y2="113.80000000000001" class="agent-2-line"></line><line fill="none" stroke="#000000" stroke-width="1" x1="62.244384765625" x2="62.244384765625" y1="0" y2="113.80000000000001" class="agent-3-line"></line><line fill="none" stroke="#000000" stroke-width="1" x1="104.48876953125" x2="104.48876953125" y1="0" y2="113.80000000000001" class="agent-4-line"></line></g><g></g><g><g class="region"><rect class="outline" fill="transparent" height="6" width="5" x="7.5" y="0"></rect></g><g class="region"><rect class="outline" fill="transparent" height="6" width="5" x="49.744384765625" y="0"></rect></g><g class="region"><rect class="outline" fill="transparent" height="6" width="5" x="59.744384765625" y="0"></rect></g><g class="region"><rect class="outline" fill="transparent" height="6" width="5" x="101.98876953125" y="0"></rect></g><g class="region"><path d="M12 29.4L52.244384765625 29.4" fill="none" stroke="#000000" stroke-width="1" mask="url(#R0P2)"></path><path class="outline" fill="transparent" d="M10,15.999999999999998L52.244384765625,15.999999999999998L52.244384765625,29.4L10,29.4Z"></path><g><text x="31.1221923828125" font-family="Helvetica,Arial,Liberation Sans,sans-serif" font-size="8" line-height="1.3" text-anchor="middle" y="26">abc123</text></g></g><g class="region"><path d="M62.244384765625 29.4L102.48876953125 29.4" fill="none" stroke="#000000" stroke-width="1" mask="url(#R0P4)"></path><path class="outline" fill="transparent" d="M62.244384765625,15.999999999999998L104.48876953125,15.999999999999998L104.48876953125,29.4L62.244384765625,29.4Z"></path><g><text x="83.3665771484375" font-family="Helvetica,Arial,Liberation Sans,sans-serif" font-size="8" line-height="1.3" text-anchor="middle" y="26">abc123</text></g></g><g class="region"><path d="M12 42.4L50.244384765625 42.4" fill="none" stroke="#000000" stroke-width="1" mask="url(#R0P5)"></path><path class="outline" fill="transparent" d="M10,39.4L52.244384765625,39.4L52.244384765625,42.4L10,42.4Z"></path></g><g class="region"><path d="M64.244384765625 42.4L64.994384765625 42.06666666666666L65.744384765625 41.9L66.494384765625 42.06666666666666L67.244384765625 42.4L67.994384765625 42.733333333333334L68.744384765625 42.9L69.494384765625 42.733333333333334L70.244384765625 42.4L70.994384765625 42.06666666666666L71.744384765625 41.9L72.494384765625 42.06666666666666L73.244384765625 42.4L73.994384765625 42.733333333333334L74.744384765625 42.9L75.494384765625 42.733333333333334L76.244384765625 42.4L76.994384765625 42.06666666666666L77.744384765625 41.9L78.494384765625 42.06666666666666L79.244384765625 42.4L79.994384765625 42.733333333333334L80.744384765625 42.9L81.494384765625 42.733333333333334L82.244384765625 42.4L82.994384765625 42.06666666666666L83.744384765625 41.9L84.494384765625 42.06666666666666L85.244384765625 42.4L85.994384765625 42.733333333333334L86.744384765625 42.9L87.494384765625 42.733333333333334L88.244384765625 42.4L88.994384765625 42.06666666666666L89.744384765625 41.9L90.494384765625 42.06666666666666L91.244384765625 42.4L91.994384765625 42.733333333333334L92.744384765625 42.9L93.494384765625 42.733333333333334L94.244384765625 42.4L94.994384765625 42.06666666666666L95.744384765625 41.9L96.494384765625 42.06666666666666L97.244384765625 42.4L97.994384765625 42.733333333333334L98.744384765625 42.9L99.494384765625 42.733333333333334L100.244384765625 42.4L100.994384765625 42.06666666666666L102.48876953125 42.4" fill="none" stroke="#000000" stroke-width="1" stroke-linejoin="round" stroke-linecap="round" mask="url(#R0P6)"></path><path class="outline" fill="transparent" d="M62.244384765625,39.4L104.48876953125,39.4L104.48876953125,42.4L62.244384765625,42.4Z"></path></g><g class="region"><path d="M12 57.4L12.75 57.06666666666666L13.5 56.9L14.25 57.06666666666666L15 57.4L15.75 57.733333333333334L16.5 57.9L17.25 57.733333333333334L18 57.4L18.75 57.06666666666666L19.5 56.9L20.25 57.06666666666666L21 57.4L21.75 57.733333333333334L22.5 57.9L23.25 57.733333333333334L24 57.4L24.75 57.06666666666666L25.5 56.9L26.25 57.06666666666666L27 57.4L27.75 57.733333333333334L28.5 57.9L29.25 57.733333333333334L30 57.4L30.75 57.06666666666666L31.5 56.9L32.25 57.06666666666666L33 57.4L33.75 57.733333333333334L34.5 57.9L35.25 57.733333333333334L36 57.4L36.75 57.06666666666666L37.5 56.9L38.25 57.06666666666666L39 57.4L39.75 57.733333333333334L40.5 57.9L41.25 57.733333333333334L42 57.4L42.75 57.06666666666666L43.5 56.9L44.25 57.06666666666666L45 57.4L45.75 57.733333333333334L46.5 57.9L47.25 57.733333333333334L48 57.4L49.244384765625 57.4" fill="none" stroke="#000000" stroke-width="1" stroke-linejoin="round" stroke-linecap="round" mask="url(#R0P7)"></path><polygon points="46.744384765625 62.4 51.744384765625 57.4 46.744384765625 52.4" fill="#000000" stroke-width="0" stroke-linejoin="miter"></polygon><path class="outline" fill="transparent" d="M10,52.4L52.244384765625,52.4L52.244384765625,62.4L10,62.4Z"></path></g><g class="region"><path d="M65.244384765625 57.4L65.994384765625 57.06666666666666L66.744384765625 56.9L67.494384765625 57.06666666666666L68.244384765625 57.4L68.994384765625 57.733333333333334L69.744384765625 57.9L70.494384765625 57.733333333333334L71.244384765625 57.4L71.994384765625 57.06666666666666L72.744384765625 56.9L73.494384765625 57.06666666666666L74.244384765625 57.4L74.994384765625 57.733333333333334L75.744384765625 57.9L76.494384765625 57.733333333333334L77.244384765625 57.4L77.994384765625 57.06666666666666L78.744384765625 56.9L79.494384765625 57.06666666666666L80.244384765625 57.4L80.994384765625 57.733333333333334L81.744384765625 57.9L82.494384765625 57.733333333333334L83.244384765625 57.4L83.994384765625 57.06666666666666L84.744384765625 56.9L85.494384765625 57.06666666666666L86.244384765625 57.4L86.994384765625 57.733333333333334L87.744384765625 57.9L88.494384765625 57.733333333333334L89.244384765625 57.4L89.994384765625 57.06666666666666L90.744384765625 56.9L91.494384765625 57.06666666666666L92.244384765625 57.4L92.994384765625 57.733333333333334L93.744384765625 57.9L94.494384765625 57.733333333333334L95.244384765625 57.4L95.994384765625 57.06666666666666L96.744384765625 56.9L97.494384765625 57.06666666666666L98.244384765625 57.4L98.994384765625 57.733333333333334L99.744384765625 57.9L100.494384765625 57.733333333333334L101.244384765625 57.4L102.48876953125 57.4" fill="none" stroke="#000000" stroke-width="1" stroke-linejoin="round" stroke-linecap="round" mask="url(#R0P8)"></path><polygon points="67.744384765625 52.4 62.744384765625 57.4 67.744384765625 62.4" fill="#000000" stroke-width="0" stroke-linejoin="miter"></polygon><path class="outline" fill="transparent" d="M62.244384765625,52.4L104.48876953125,52.4L104.48876953125,62.4L62.244384765625,62.4Z"></path></g><g class="region"><rect class="outline" fill="transparent" height="30.400000000000006" width="24.448928833007812" x="10" y="67.4"></rect><g><text x="18" font-family="Helvetica,Arial,Liberation Sans,sans-serif" font-size="8" line-height="1.3" y="77.4">a</text></g><path d="M12 80.80000000000001L28.448928833007812 80.80000000000001A6 6 0 1 1 28.448928833007812 92.80000000000001L13 92.80000000000001" fill="none" stroke="#000000" stroke-width="1" mask="url(#R0P9)"></path><polygon points="15.5 87.80000000000001 10.5 92.80000000000001 15.5 97.80000000000001" fill="#000000" stroke-width="0" stroke-linejoin="miter"></polygon></g><g class="region"><rect class="outline" fill="transparent" height="25.400000000000006" width="27.948928833007812" x="62.244384765625" y="67.4"></rect><g><text x="73.744384765625" font-family="Helvetica,Arial,Liberation Sans,sans-serif" font-size="8" line-height="1.3" y="77.4">a</text></g><path d="M65.244384765625 80.80000000000001L84.19331359863281 80.80000000000001A6 6 0 1 1 84.19331359863281 92.80000000000001L64.244384765625 92.80000000000001" fill="none" stroke="#000000" stroke-width="1" mask="url(#R0P10)"></path><polygon points="67.744384765625 75.80000000000001 62.744384765625 80.80000000000001 67.744384765625 85.80000000000001" fill="#000000" stroke-width="0" stroke-linejoin="miter"></polygon></g><g class="region"><rect class="outline" fill="transparent" height="6" width="5" x="7.5" y="107.80000000000001"></rect></g><g class="region"><rect class="outline" fill="transparent" height="6" width="5" x="49.744384765625" y="107.80000000000001"></rect></g><g class="region"><rect class="outline" fill="transparent" height="6" width="5" x="59.744384765625" y="107.80000000000001"></rect></g><g class="region"><rect class="outline" fill="transparent" height="6" width="5" x="101.98876953125" y="107.80000000000001"></rect></g></g></g></svg>