<?xml version="1.0" encoding="UTF-8" ?><svg width="98.00654315948486" height="191.2" xmlns="http://www.w3.org/2000/svg" version="1.1" viewBox="-5 -5 98.00654315948486 191.2"><metadata>begin A, B
activate A
activate B
activate A
activate A
activate B
activate A
deactivate A
deactivate A
end A
deactivate B

begin A
</metadata><defs></defs><defs><mask id="R0FullMask" maskUnits="userSpaceOnUse"><rect fill="#FFFFFF" height="191.2" width="98.00654315948486" x="-5" y="-5"></rect></mask><mask id="R0LineMask" maskUnits="userSpaceOnUse"><rect fill="#FFFFFF" height="191.2" width="98.00654315948486" x="-5" y="-5"></rect></mask></defs><g></g><g></g><g></g><g mask="url(#R0FullMask)"><g mask="url(#R0LineMask)"><line fill="none" stroke="#000000" stroke-width="1" x1="26" x2="26" y1="25.6" y2="35.6" class="agent-1-line"></line><line fill="none" stroke="#000000" stroke-width="1" x1="64.00436210632324" x2="64.00436210632324" y1="25.6" y2="35.6" class="agent-2-line"></line><rect fill="none" stroke="#000000" stroke-width="1" height="10" width="8" x="22" y="35.6" class="agent-1-line"></rect><rect fill="none" stroke="#000000" stroke-width="1" height="10" width="16" x="18" y="45.6" class="agent-1-line"></rect><rect fill="none" stroke="#000000" stroke-width="1" height="20" width="8" x="60.00436210632324" y="35.6" class="agent-2-line"></rect><rect fill="none" stroke="#000000" stroke-width="1" height="9.999999999999993" width="24" x="14" y="55.6" class="agent-1-line"></rect><rect fill="none" stroke="#000000" stroke-width="1" height="10" width="32" x="10" y="65.6" class="agent-1-line"></rect><rect fill="none" stroke="#000000" stroke-width="1" height="10" width="24" x="14" y="75.6" class="agent-1-line"></rect><rect fill="none" stroke="#000000" stroke-width="1" height="20" width="16" x="18" y="85.6" class="agent-1-line"></rect><rect fill="none" stroke="#000000" stroke-width="1" height="70" width="16" x="56.00436210632324" y="55.6" class="agent-2-line"></rect><rect fill="none" stroke="#000000" stroke-width="1" height="55.599999999999994" width="8" x="60.00436210632324" y="125.6" class="agent-2-line"></rect><line fill="none" stroke="#000000" stroke-width="1" x1="26" x2="26" y1="161.2" y2="181.2" class="agent-1-line"></line></g><g></g><g><g class="region"><g><rect fill="#FFFFFF" stroke="#000000" stroke-width="1" height="25.6" width="28.004362106323242" x="11.997818946838379" y="0"></rect><g><text x="26" font-family="Helvetica,Arial,Liberation Sans,sans-serif" font-size="12" line-height="1.3" text-anchor="middle" y="17">A</text></g></g><rect class="outline" fill="transparent" height="25.6" width="28.004362106323242" x="11.997818946838379" y="0"></rect></g><g class="region"><g><rect fill="#FFFFFF" stroke="#000000" stroke-width="1" height="25.6" width="28.004362106323242" x="50.00218105316162" y="0"></rect><g><text x="64.00436210632324" font-family="Helvetica,Arial,Liberation Sans,sans-serif" font-size="12" line-height="1.3" text-anchor="middle" y="17">B</text></g></g><rect class="outline" fill="transparent" height="25.6" width="28.004362106323242" x="50.00218105316162" y="0"></rect></g><g class="region"><path d="M16 95.6l20 20m0 -20l-20 20" fill="none" stroke="#000000" stroke-width="1"></path><rect class="outline" fill="transparent" height="20" width="20" x="16" y="95.6"></rect></g><g class="region"><g><rect fill="#FFFFFF" stroke="#000000" stroke-width="1" height="25.6" width="28.004362106323242" x="11.997818946838379" y="135.6"></rect><g><text x="26" font-family="Helvetica,Arial,Liberation Sans,sans-serif" font-size="12" line-height="1.3" text-anchor="middle" y="152.6">A</text></g></g><rect class="outline" fill="transparent" height="25.6" width="28.004362106323242" x="11.997818946838379" y="135.6"></rect></g><g class="region"><rect class="outline" fill="transparent" height="10" width="10" x="21" y="171.2"></rect></g><g class="region"><rect class="outline" fill="transparent" height="10" width="10" x="59.00436210632324" y="171.2"></rect></g></g></g></svg>