<?xml version="1.0" encoding="UTF-8" ?><svg width="204.468430519104" height="272" xmlns="http://www.w3.org/2000/svg" version="1.1" viewBox="-5 -5 204.468430519104 272"><metadata>User -&gt; +System: Save file
System -&gt; +Disk: Write file
Disk -&gt; +System: Content?
-System --&gt; Disk: Content
-Disk --&gt; System: done
+System -&gt; -System: Cache
-System --&gt; User: done
</metadata><defs></defs><defs><mask id="R0FullMask" maskUnits="userSpaceOnUse"><rect fill="#FFFFFF" height="272" width="204.468430519104" x="-5" y="-5"></rect></mask><mask id="R0LineMask" maskUnits="userSpaceOnUse"><rect fill="#FFFFFF" height="272" width="204.468430519104" x="-5" y="-5"></rect><rect fill="#000000" height="11.4" width="36.67904472351074" x="43.663076400756836" y="37.6"></rect><rect fill="#000000" height="11.4" width="36.96976852416992" x="110.58550834655762" y="96.6"></rect><rect fill="#000000" height="11.4" width="38.4654655456543" x="111.83765983581543" y="120"></rect><rect fill="#000000" height="11.4" width="34.01662254333496" x="114.0620813369751" y="143.4"></rect><rect fill="#000000" height="11.4" width="23.79537582397461" x="117.17270469665527" y="166.8"></rect><rect fill="#000000" height="11.4" width="29.120216369628906" x="106.33765983581543" y="190.20000000000002"></rect><rect fill="#000000" height="11.4" width="23.79537582397461" x="50.1049108505249" y="230.60000000000002"></rect></mask></defs><g></g><g></g><g></g><g mask="url(#R0FullMask)"><g mask="url(#R0LineMask)"><line fill="none" stroke="#000000" stroke-width="1" x1="95.33765983581543" x2="95.33765983581543" y1="25.6" y2="49" class="agent-2-line"></line><line fill="none" stroke="#000000" stroke-width="1" x1="162.80312538146973" x2="162.80312538146973" y1="84.6" y2="108" class="agent-3-line"></line><rect fill="none" stroke="#000000" stroke-width="1" height="82.4" width="8" x="91.33765983581543" y="49" class="agent-2-line"></rect><rect fill="none" stroke="#000000" stroke-width="1" height="23.400000000000006" width="16" x="87.33765983581543" y="131.4" class="agent-2-line"></rect><rect fill="none" stroke="#000000" stroke-width="1" height="70.20000000000002" width="8" x="158.80312538146973" y="108" class="agent-3-line"></rect><rect fill="none" stroke="#000000" stroke-width="1" height="46.80000000000001" width="8" x="91.33765983581543" y="154.8" class="agent-2-line"></rect><rect fill="none" stroke="#000000" stroke-width="1" height="12" width="16" x="87.33765983581543" y="201.60000000000002" class="agent-2-line"></rect><rect fill="none" stroke="#000000" stroke-width="1" height="28.400000000000006" width="8" x="91.33765983581543" y="213.60000000000002" class="agent-2-line"></rect><line fill="none" stroke="#000000" stroke-width="1" x1="32.667537689208984" x2="32.667537689208984" y1="25.6" y2="262" class="agent-1-line"></line><line fill="none" stroke="#000000" stroke-width="1" x1="95.33765983581543" x2="95.33765983581543" y1="242.00000000000003" y2="262" class="agent-2-line"></line><line fill="none" stroke="#000000" stroke-width="1" x1="162.80312538146973" x2="162.80312538146973" y1="178.20000000000002" y2="262" class="agent-3-line"></line></g><g></g><g><g class="region"><g><rect fill="#FFFFFF" stroke="#000000" stroke-width="1" height="25.6" width="45.33507537841797" x="10" y="0"></rect><g><text x="32.667537689208984" font-family="Helvetica,Arial,Liberation Sans,sans-serif" font-size="12" line-height="1.3" text-anchor="middle" y="17">User</text></g></g><rect class="outline" fill="transparent" height="25.6" width="45.33507537841797" x="10" y="0"></rect></g><g class="region"><g><rect fill="#FFFFFF" stroke="#000000" stroke-width="1" height="25.6" width="60.00516891479492" x="65.33507537841797" y="0"></rect><g><text x="95.33765983581543" font-family="Helvetica,Arial,Liberation Sans,sans-serif" font-size="12" line-height="1.3" text-anchor="middle" y="17">System</text></g></g><rect class="outline" fill="transparent" height="25.6" width="60.00516891479492" x="65.33507537841797" y="0"></rect></g><g class="region"><path d="M32.667537689208984 49L88.33765983581543 49" fill="none" stroke="#000000" stroke-width="1"></path><polygon points="85.83765983581543 54 90.83765983581543 49 85.83765983581543 44" fill="#000000" stroke-width="0" stroke-linejoin="miter"></polygon><path class="outline" fill="transparent" d="M32.667537689208984,35.6L91.33765983581543,35.6L91.33765983581543,54L32.667537689208984,54Z"></path><g><text x="62.00259876251221" font-family="Helvetica,Arial,Liberation Sans,sans-serif" font-size="8" line-height="1.3" text-anchor="middle" y="45.6">Save file</text></g></g><g class="region"><g><rect fill="#FFFFFF" stroke="#000000" stroke-width="1" height="25.6" width="43.330610275268555" x="141.13782024383545" y="59"></rect><g><text x="162.80312538146973" font-family="Helvetica,Arial,Liberation Sans,sans-serif" font-size="12" line-height="1.3" text-anchor="middle" y="76">Disk</text></g></g><rect class="outline" fill="transparent" height="25.6" width="43.330610275268555" x="141.13782024383545" y="59"></rect></g><g class="region"><path d="M99.33765983581543 108L155.80312538146973 108" fill="none" stroke="#000000" stroke-width="1"></path><polygon points="153.30312538146973 113 158.30312538146973 108 153.30312538146973 103" fill="#000000" stroke-width="0" stroke-linejoin="miter"></polygon><path class="outline" fill="transparent" d="M99.33765983581543,94.6L158.80312538146973,94.6L158.80312538146973,113L99.33765983581543,113Z"></path><g><text x="129.07039260864258" font-family="Helvetica,Arial,Liberation Sans,sans-serif" font-size="8" line-height="1.3" text-anchor="middle" y="104.6">Write file</text></g></g><g class="region"><path d="M158.80312538146973 131.4L106.33765983581543 131.4" fill="none" stroke="#000000" stroke-width="1"></path><polygon points="108.83765983581543 126.4 103.83765983581543 131.4 108.83765983581543 136.4" fill="#000000" stroke-width="0" stroke-linejoin="miter"></polygon><path class="outline" fill="transparent" d="M158.80312538146973,118L103.33765983581543,118L103.33765983581543,136.4L158.80312538146973,136.4Z"></path><g><text x="131.07039260864258" font-family="Helvetica,Arial,Liberation Sans,sans-serif" font-size="8" line-height="1.3" text-anchor="middle" y="128">Content?</text></g></g><g class="region"><path d="M103.33765983581543 154.8L155.80312538146973 154.8" fill="none" stroke="#000000" stroke-width="1" stroke-dasharray="4, 2"></path><polygon points="153.30312538146973 159.8 158.30312538146973 154.8 153.30312538146973 149.8" fill="#000000" stroke-width="0" stroke-linejoin="miter"></polygon><path class="outline" fill="transparent" d="M103.33765983581543,141.4L158.80312538146973,141.4L158.80312538146973,159.8L103.33765983581543,159.8Z"></path><g><text x="131.07039260864258" font-family="Helvetica,Arial,Liberation Sans,sans-serif" font-size="8" line-height="1.3" text-anchor="middle" y="151.4">Content</text></g></g><g class="region"><path d="M158.80312538146973 178.20000000000002L102.33765983581543 178.20000000000002" fill="none" stroke="#000000" stroke-width="1" stroke-dasharray="4, 2"></path><polygon points="104.83765983581543 173.20000000000002 99.83765983581543 178.20000000000002 104.83765983581543 183.20000000000002" fill="#000000" stroke-width="0" stroke-linejoin="miter"></polygon><path class="outline" fill="transparent" d="M158.80312538146973,164.8L99.33765983581543,164.8L99.33765983581543,183.20000000000002L158.80312538146973,183.20000000000002Z"></path><g><text x="129.07039260864258" font-family="Helvetica,Arial,Liberation Sans,sans-serif" font-size="8" line-height="1.3" text-anchor="middle" y="174.8">done</text></g></g><g class="region"><rect class="outline" fill="transparent" height="30.400000000000006" width="49.120216369628906" x="95.33765983581543" y="188.20000000000002"></rect><g><text x="109.33765983581543" font-family="Helvetica,Arial,Liberation Sans,sans-serif" font-size="8" line-height="1.3" y="198.20000000000002">Cache</text></g><path d="M103.33765983581543 201.60000000000002L138.45787620544434 201.60000000000002A6 6 0 1 1 138.45787620544434 213.60000000000002L106.33765983581543 213.60000000000002" fill="none" stroke="#000000" stroke-width="1"></path><polygon points="108.83765983581543 208.60000000000002 103.83765983581543 213.60000000000002 108.83765983581543 218.60000000000002" fill="#000000" stroke-width="0" stroke-linejoin="miter"></polygon></g><g class="region focus"><path d="M91.33765983581543 242.00000000000003L35.667537689208984 242.00000000000003" fill="none" stroke="#000000" stroke-width="1" stroke-dasharray="4, 2"></path><polygon points="38.167537689208984 237.00000000000003 33.167537689208984 242.00000000000003 38.167537689208984 247.00000000000003" fill="#000000" stroke-width="0" stroke-linejoin="miter"></polygon><path class="outline" fill="transparent" d="M91.33765983581543,228.60000000000002L32.667537689208984,228.60000000000002L32.667537689208984,247.00000000000003L91.33765983581543,247.00000000000003Z"></path><g><text x="62.00259876251221" font-family="Helvetica,Arial,Liberation Sans,sans-serif" font-size="8" line-height="1.3" text-anchor="middle" y="238.60000000000002">done</text></g></g><g class="region focus"><rect class="outline" fill="transparent" height="10" width="10" x="27.667537689208984" y="252"></rect></g><g class="region focus"><rect class="outline" fill="transparent" height="10" width="10" x="90.33765983581543" y="252"></rect></g><g class="region focus"><rect class="outline" fill="transparent" height="10" width="10" x="157.80312538146973" y="252"></rect></g></g></g></svg>