<svg width="167.57968878746033" height="229.3" xmlns="http://www.w3.org/2000/svg" version="1.1" viewBox="-5 -5 167.57968878746033 229.3"><metadata>begin A, B, C

A -&gt; B
&amp; A -&gt; C: ?
&amp; note right of C: x
&amp; note left of A: "b\nr"

A -&gt; B
&amp; B -&gt; B
&amp; B -&gt; A: done

A -&gt; ...1
&amp; A -&gt; ...2
...1 -&gt; B
&amp; ...2 -&gt; C: delay

begin reference over A: AA as AA
&amp; begin reference over C: CC as CC
AA -&gt; B
&amp; CC -&gt; B
end AA
&amp; end CC
</metadata><defs></defs><defs><mask id="R0FullMask" maskUnits="userSpaceOnUse"><rect fill="#FFFFFF" height="229.3" width="167.57968878746033" x="-5" y="-5"></rect></mask><mask id="R0LineMask" maskUnits="userSpaceOnUse"><rect fill="#FFFFFF" height="229.3" width="167.57968878746033" x="-5" y="-5"></rect><rect fill="#000000" height="11.4" width="10.449106693267822" x="73.78989434242249" y="37.6"></rect><rect fill="#000000" height="11.4" width="23.79642677307129" x="47.94910669326782" y="93.4"></rect><rect fill="#000000" transform="rotate(16.47365238785863 79.0144476890564,144.90000000000003)" height="11.4" width="25.1245174407959" x="66.45218896865845" y="133.50000000000003"></rect><rect fill="#000000" height="12.4" width="18.67160701751709" x="30.777499675750732" y="166.60000000000002"></rect><rect fill="#000000" height="12.4" width="19.55439567565918" x="109.02539300918579" y="166.60000000000002"></rect><rect fill="#000000" stroke="none" stroke-width="1.5" rx="2" ry="2" height="32.69999999999999" width="36.17551517486572" x="13.2735915184021" y="166.60000000000002"></rect><rect fill="#000000" stroke="none" stroke-width="1.5" rx="2" ry="2" height="32.69999999999999" width="37.05830383300781" x="91.52148485183716" y="166.60000000000002"></rect></mask></defs><g><rect fill="#FFFFFF" stroke="none" stroke-width="1.5" rx="2" ry="2" height="32.69999999999999" width="36.17551517486572" x="13.2735915184021" y="166.60000000000002"></rect><rect fill="#FFFFFF" stroke="none" stroke-width="1.5" rx="2" ry="2" height="32.69999999999999" width="37.05830383300781" x="91.52148485183716" y="166.60000000000002"></rect></g><g></g><g></g><g mask="url(#R0FullMask)"><g mask="url(#R0LineMask)"><line fill="none" stroke="#000000" stroke-width="1" x1="39.44910669326782" x2="39.44910669326782" y1="25.6" y2="219.3" class="agent-2-line"></line><line fill="none" stroke="#000000" stroke-width="1" x1="80.24553346633911" x2="80.24553346633911" y1="25.6" y2="219.3" class="agent-4-line"></line><line fill="none" stroke="#000000" stroke-width="1" x1="118.57978868484497" x2="118.57978868484497" y1="25.6" y2="219.3" class="agent-6-line"></line></g><g><g><g><path d="M30.777499675750732 166.60000000000002L30.777499675750732 177.3L28.777499675750732 179.3L13.2735915184021 179.3L13.2735915184021 166.60000000000002" fill="#FFFFFF" stroke="none" stroke-width="1" rx="2" ry="2"></path><path d="M30.777499675750732 166.60000000000002L30.777499675750732 177.3L28.777499675750732 179.3L13.2735915184021 179.3" fill="none" stroke="#000000" stroke-width="1" rx="2" ry="2"></path></g><rect fill="none" stroke="#000000" stroke-width="1.5" rx="2" ry="2" height="32.69999999999999" width="36.17551517486572" x="13.2735915184021" y="166.60000000000002"></rect></g><g><g><path d="M109.02539300918579 166.60000000000002L109.02539300918579 177.3L107.02539300918579 179.3L91.52148485183716 179.3L91.52148485183716 166.60000000000002" fill="#FFFFFF" stroke="none" stroke-width="1" rx="2" ry="2"></path><path d="M109.02539300918579 166.60000000000002L109.02539300918579 177.3L107.02539300918579 179.3L91.52148485183716 179.3" fill="none" stroke="#000000" stroke-width="1" rx="2" ry="2"></path></g><rect fill="none" stroke="#000000" stroke-width="1.5" rx="2" ry="2" height="32.69999999999999" width="37.05830383300781" x="91.52148485183716" y="166.60000000000002"></rect></g></g><g><g class="region"><g><rect fill="#FFFFFF" stroke="#000000" stroke-width="1" height="25.6" width="28.00322914123535" x="25.447492122650146" y="0"></rect><g><text x="39.44910669326782" font-family="Helvetica,Arial,Liberation Sans,sans-serif" font-size="12" line-height="1.3" text-anchor="middle" y="17">A</text></g></g><rect class="outline" fill="transparent" height="25.6" width="28.00322914123535" x="25.447492122650146" y="0"></rect></g><g class="region"><g><rect fill="#FFFFFF" stroke="#000000" stroke-width="1" height="25.6" width="28.00322914123535" x="66.24391889572144" y="0"></rect><g><text x="80.24553346633911" font-family="Helvetica,Arial,Liberation Sans,sans-serif" font-size="12" line-height="1.3" text-anchor="middle" y="17">B</text></g></g><rect class="outline" fill="transparent" height="25.6" width="28.00322914123535" x="66.24391889572144" y="0"></rect></g><g class="region"><g><rect fill="#FFFFFF" stroke="#000000" stroke-width="1" height="25.6" width="28.665281295776367" x="104.24714803695679" y="0"></rect><g><text x="118.57978868484497" font-family="Helvetica,Arial,Liberation Sans,sans-serif" font-size="12" line-height="1.3" text-anchor="middle" y="17">C</text></g></g><rect class="outline" fill="transparent" height="25.6" width="28.665281295776367" x="104.24714803695679" y="0"></rect></g><g class="region"><path d="M39.44910669326782 49L77.24553346633911 49" fill="none" stroke="#000000" stroke-width="1"></path><polygon points="74.74553346633911 54 79.74553346633911 49 74.74553346633911 44" fill="#000000" stroke-width="0" stroke-linejoin="miter"></polygon><path class="outline" fill="transparent" d="M39.44910669326782,44L80.24553346633911,44L80.24553346633911,54L39.44910669326782,54Z"></path></g><g class="region"><path d="M39.44910669326782 49L115.57978868484497 49" fill="none" stroke="#000000" stroke-width="1"></path><polygon points="113.07978868484497 54 118.07978868484497 49 113.07978868484497 44" fill="#000000" stroke-width="0" stroke-linejoin="miter"></polygon><path class="outline" fill="transparent" d="M39.44910669326782,35.6L118.57978868484497,35.6L118.57978868484497,54L39.44910669326782,54Z"></path><g><text x="79.0144476890564" font-family="Helvetica,Arial,Liberation Sans,sans-serif" font-size="8" line-height="1.3" text-anchor="middle" y="45.6">?</text></g></g><g class="region"><g><polygon points="123.57978868484497 35.6 135.57968878746033 35.6 142.57968878746033 42.6 142.57968878746033 56 123.57978868484497 56" fill="#FFFFFF" stroke="#000000" stroke-width="1"></polygon><polyline points="135.57968878746033 35.6 135.57968878746033 42.6 142.57968878746033 42.6" fill="none" stroke="#000000" stroke-width="1"></polyline></g><rect class="outline" fill="transparent" height="20.4" width="18.999900102615356" x="123.57978868484497" y="35.6"></rect><g><text x="128.57978868484497" font-family="Helvetica,Arial,Liberation Sans,sans-serif" font-size="8" line-height="1.3" y="48.6">x</text></g></g><g class="region"><g><polygon points="15 35.6 27.449106693267822 35.6 34.44910669326782 42.6 34.44910669326782 66.4 15 66.4" fill="#FFFFFF" stroke="#000000" stroke-width="1"></polygon><polyline points="27.449106693267822 35.6 27.449106693267822 42.6 34.44910669326782 42.6" fill="none" stroke="#000000" stroke-width="1"></polyline></g><rect class="outline" fill="transparent" height="30.8" width="19.449106693267822" x="15" y="35.6"></rect><g><text x="20" font-family="Helvetica,Arial,Liberation Sans,sans-serif" font-size="8" line-height="1.3" y="48.6">b</text><text x="20" font-family="Helvetica,Arial,Liberation Sans,sans-serif" font-size="8" line-height="1.3" y="59">r</text></g></g><g class="region"><path d="M39.44910669326782 81.4L77.24553346633911 81.4" fill="none" stroke="#000000" stroke-width="1"></path><polygon points="74.74553346633911 86.4 79.74553346633911 81.4 74.74553346633911 76.4" fill="#000000" stroke-width="0" stroke-linejoin="miter"></polygon><path class="outline" fill="transparent" d="M39.44910669326782,76.4L80.24553346633911,76.4L80.24553346633911,86.4L39.44910669326782,86.4Z"></path></g><g class="region"><rect class="outline" fill="transparent" height="31.400000000000006" width="12" x="80.24553346633911" y="78.4"></rect><path d="M80.24553346633911 81.4L86.24553346633911 81.4A6 6 0 0 1 92.24553346633911 87.4L92.24553346633911 98.80000000000001A6 6 0 0 1 86.24553346633911 104.80000000000001L83.24553346633911 104.80000000000001" fill="none" stroke="#000000" stroke-width="1"></path><polygon points="85.74553346633911 99.80000000000001 80.74553346633911 104.80000000000001 85.74553346633911 109.80000000000001" fill="#000000" stroke-width="0" stroke-linejoin="miter"></polygon></g><g class="region"><path d="M80.24553346633911 104.80000000000001L42.44910669326782 104.80000000000001" fill="none" stroke="#000000" stroke-width="1"></path><polygon points="44.94910669326782 99.80000000000001 39.94910669326782 104.80000000000001 44.94910669326782 109.80000000000001" fill="#000000" stroke-width="0" stroke-linejoin="miter"></polygon><path class="outline" fill="transparent" d="M80.24553346633911,91.4L39.44910669326782,91.4L39.44910669326782,109.80000000000001L80.24553346633911,109.80000000000001Z"></path><g><text x="59.84732007980347" font-family="Helvetica,Arial,Liberation Sans,sans-serif" font-size="8" line-height="1.3" text-anchor="middle" y="101.4">done</text></g></g><g class="region"><path d="M39.44910669326782 133.20000000000002L77.64321880580576 155.1073652799251" fill="none" stroke="#000000" stroke-width="1"></path><polygon points="72.98689872190307 158.2006941140849 79.81181435625022 156.3512275466542 77.96234778881951 149.52631191230705" fill="#000000" stroke-width="0" stroke-linejoin="miter"></polygon><path class="outline" fill="transparent" d="M39.44910669326782,128.20000000000002L80.24553346633911,151.60000000000002L80.24553346633911,161.60000000000002L39.44910669326782,138.20000000000002Z"></path><g transform="rotate(29.83770482532012 59.84732007980347,144.90000000000003)"></g></g><g class="region"><path d="M39.44910669326782 133.20000000000002L115.70293796881987 155.7492768031223" fill="none" stroke="#000000" stroke-width="1"></path><polygon points="111.8876903773361 159.83509199909943 118.10031356550745 156.4582128005204 114.72343436692844 150.24558961234905" fill="#000000" stroke-width="0" stroke-linejoin="miter"></polygon><path class="outline" fill="transparent" d="M39.44910669326782,119.80000000000001L118.57978868484497,143.20000000000002L118.57978868484497,161.60000000000002L39.44910669326782,138.20000000000002Z"></path><g transform="rotate(16.47365238785863 79.0144476890564,144.90000000000003)"><g><text x="79.0144476890564" font-family="Helvetica,Arial,Liberation Sans,sans-serif" font-size="8" line-height="1.3" text-anchor="middle" y="141.50000000000003">delay</text></g></g></g><g class="region"><rect class="outline" fill="transparent" height="12.700000000000001" width="36.17551517486572" x="13.2735915184021" y="166.60000000000002"></rect><g><text x="16.2735915184021" font-family="Helvetica,Arial,Liberation Sans,sans-serif" font-weight="bold" font-size="9" line-height="1.3" text-anchor="left" y="176.60000000000002">ref</text></g><g><text x="35.77749967575073" font-family="Helvetica,Arial,Liberation Sans,sans-serif" font-size="8" line-height="1.3" text-anchor="left" y="175.60000000000002">AA</text></g></g><g class="region"><rect class="outline" fill="transparent" height="12.700000000000001" width="37.05830383300781" x="91.52148485183716" y="166.60000000000002"></rect><g><text x="94.52148485183716" font-family="Helvetica,Arial,Liberation Sans,sans-serif" font-weight="bold" font-size="9" line-height="1.3" text-anchor="left" y="176.60000000000002">ref</text></g><g><text x="114.02539300918579" font-family="Helvetica,Arial,Liberation Sans,sans-serif" font-size="8" line-height="1.3" text-anchor="left" y="175.60000000000002">CC</text></g></g><g class="region"><path d="M49.44910669326782 187.3L77.24553346633911 187.3" fill="none" stroke="#000000" stroke-width="1"></path><polygon points="74.74553346633911 192.3 79.74553346633911 187.3 74.74553346633911 182.3" fill="#000000" stroke-width="0" stroke-linejoin="miter"></polygon><path class="outline" fill="transparent" d="M49.44910669326782,182.3L80.24553346633911,182.3L80.24553346633911,192.3L49.44910669326782,192.3Z"></path></g><g class="region"><path d="M91.52148485183716 187.3L83.24553346633911 187.3" fill="none" stroke="#000000" stroke-width="1"></path><polygon points="85.74553346633911 182.3 80.74553346633911 187.3 85.74553346633911 192.3" fill="#000000" stroke-width="0" stroke-linejoin="miter"></polygon><path class="outline" fill="transparent" d="M91.52148485183716,182.3L80.24553346633911,182.3L80.24553346633911,192.3L91.52148485183716,192.3Z"></path></g><g class="region"><rect class="outline" fill="transparent" height="10" width="10" x="34.44910669326782" y="209.3"></rect></g><g class="region"><rect class="outline" fill="transparent" height="10" width="10" x="75.24553346633911" y="209.3"></rect></g><g class="region"><rect class="outline" fill="transparent" height="10" width="10" x="113.57978868484497" y="209.3"></rect></g></g></g></svg>