<svg width="134.67259407043457" height="141"  xmlns="http://www.w3.org/2000/svg" version="1.1" viewBox="-5 -5 134.67259407043457 141"><metadata>begin A, B, C
if
begin reference over B: R as R
A -&gt; R
A -&gt; C
end
end R
</metadata><defs></defs><defs><mask id="R0FullMask" maskUnits="userSpaceOnUse"><rect fill="#FFFFFF" height="141" width="134.67259407043457" x="-5" y="-5"></rect></mask><mask id="R0LineMask" maskUnits="userSpaceOnUse"><rect fill="#FFFFFF" height="141" width="134.67259407043457" x="-5" y="-5"></rect><rect fill="#000000" height="12.4" width="13.777053833007812" x="58.22820472717285" y="51.300000000000004"></rect><rect fill="#000000" stroke="none" stroke-width="1.5" rx="2" ry="2" height="59.699999999999996" width="31.281356811523438" x="40.72390174865723" y="51.300000000000004"></rect></mask></defs><g><rect fill="#FFFFFF" stroke="none" stroke-width="1.5" rx="2" ry="2" height="59.699999999999996" width="31.281356811523438" x="40.72390174865723" y="51.300000000000004"></rect></g><g></g><g></g><g mask="url(#R0FullMask)"><g mask="url(#R0LineMask)"><line fill="none" stroke="#000000" stroke-width="1" x1="24.001752853393555" x2="24.001752853393555" y1="25.6" y2="131" class="agent-2-line"></line><line fill="none" stroke="#000000" stroke-width="1" x1="62.005258560180664" x2="62.005258560180664" y1="25.6" y2="131" class="agent-4-line"></line><line fill="none" stroke="#000000" stroke-width="1" x1="100.3398027420044" x2="100.3398027420044" y1="25.6" y2="131" class="agent-6-line"></line></g><g><g><g><path d="M25.49903392791748 35.6L25.49903392791748 46.300000000000004L23.49903392791748 48.300000000000004L14.001752853393555 48.300000000000004L14.001752853393555 35.6" fill="#FFFFFF" stroke="none" stroke-width="1" rx="2" ry="2"></path><path d="M25.49903392791748 35.6L25.49903392791748 46.300000000000004L23.49903392791748 48.300000000000004L14.001752853393555 48.300000000000004" fill="none" stroke="#000000" stroke-width="1" rx="2" ry="2"></path></g><rect fill="none" stroke="#000000" stroke-width="1.5" rx="2" ry="2" height="63.4" width="96.33804988861084" x="14.001752853393555" y="35.6"></rect></g><g><g><path d="M58.22820472717285 51.300000000000004L58.22820472717285 62L56.22820472717285 64L40.72390174865723 64L40.72390174865723 51.300000000000004" fill="#FFFFFF" stroke="none" stroke-width="1" rx="2" ry="2"></path><path d="M58.22820472717285 51.300000000000004L58.22820472717285 62L56.22820472717285 64L40.72390174865723 64" fill="none" stroke="#000000" stroke-width="1" rx="2" ry="2"></path></g><rect fill="none" stroke="#000000" stroke-width="1.5" rx="2" ry="2" height="59.699999999999996" width="31.281356811523438" x="40.72390174865723" y="51.300000000000004"></rect></g></g><g><g class="region"><g><rect fill="#FFFFFF" stroke="#000000" stroke-width="1" height="25.6" width="28.00350570678711" x="10" y="0"></rect><g><text x="24.001752853393555" font-family="Helvetica,Arial,Liberation Sans,sans-serif" font-size="12" line-height="1.3" text-anchor="middle" y="17">A</text></g></g><rect class="outline" fill="transparent" height="25.6" width="28.00350570678711" x="10" y="0"></rect></g><g class="region"><g><rect fill="#FFFFFF" stroke="#000000" stroke-width="1" height="25.6" width="28.00350570678711" x="48.00350570678711" y="0"></rect><g><text x="62.005258560180664" font-family="Helvetica,Arial,Liberation Sans,sans-serif" font-size="12" line-height="1.3" text-anchor="middle" y="17">B</text></g></g><rect class="outline" fill="transparent" height="25.6" width="28.00350570678711" x="48.00350570678711" y="0"></rect></g><g class="region"><g><rect fill="#FFFFFF" stroke="#000000" stroke-width="1" height="25.6" width="28.66558265686035" x="86.00701141357422" y="0"></rect><g><text x="100.3398027420044" font-family="Helvetica,Arial,Liberation Sans,sans-serif" font-size="12" line-height="1.3" text-anchor="middle" y="17">C</text></g></g><rect class="outline" fill="transparent" height="25.6" width="28.66558265686035" x="86.00701141357422" y="0"></rect></g><g class="region expanded"><rect class="outline" fill="transparent" height="12.700000000000001" width="96.33804988861084" x="14.001752853393555" y="35.6"></rect><g><text x="17.001752853393555" font-family="Helvetica,Arial,Liberation Sans,sans-serif" font-weight="bold" font-size="9" line-height="1.3" text-anchor="left" y="45.6">if</text></g></g><g class="region"><rect class="outline" fill="transparent" height="12.700000000000001" width="31.281356811523438" x="40.72390174865723" y="51.300000000000004"></rect><g><text x="43.72390174865723" font-family="Helvetica,Arial,Liberation Sans,sans-serif" font-weight="bold" font-size="9" line-height="1.3" text-anchor="left" y="61.300000000000004">ref</text></g><g><text x="63.22820472717285" font-family="Helvetica,Arial,Liberation Sans,sans-serif" font-size="8" line-height="1.3" text-anchor="left" y="60.300000000000004">R</text></g></g><g class="region"><path d="M24.001752853393555 72L37.72390174865723 72" fill="none" stroke="#000000" stroke-width="1"></path><polygon points="35.22390174865723 77 40.22390174865723 72 35.22390174865723 67" fill="#000000" stroke-width="0" stroke-linejoin="miter"></polygon><path class="outline" fill="transparent" d="M24.001752853393555,67L40.72390174865723,67L40.72390174865723,77L24.001752853393555,77Z"></path></g><g class="region"><path d="M24.001752853393555 87L97.3398027420044 87" fill="none" stroke="#000000" stroke-width="1"></path><polygon points="94.8398027420044 92 99.8398027420044 87 94.8398027420044 82" fill="#000000" stroke-width="0" stroke-linejoin="miter"></polygon><path class="outline" fill="transparent" d="M24.001752853393555,82L100.3398027420044,82L100.3398027420044,92L24.001752853393555,92Z"></path></g><g class="region"><rect class="outline" fill="transparent" height="10" width="10" x="19.001752853393555" y="121"></rect></g><g class="region"><rect class="outline" fill="transparent" height="10" width="10" x="57.005258560180664" y="121"></rect></g><g class="region"><rect class="outline" fill="transparent" height="10" width="10" x="95.3398027420044" y="121"></rect></g></g></g></svg>