<svg width="134.673828125" height="141"  xmlns="http://www.w3.org/2000/svg" version="1.1" viewBox="-5 -5 134.673828125 141"><metadata>begin A, B, C
if
begin reference over B: R as R
A -&gt; R
A -&gt; C
end
end R
</metadata><defs></defs><defs><mask id="R0LineMask" maskUnits="userSpaceOnUse"><rect fill="#FFFFFF" x="-5" y="-5" width="134.673828125" height="141"></rect><rect x="58.228515625" y="51.300000000000004" width="13.77734375" height="11.4" fill="#000000"></rect><rect x="40.7236328125" y="51.300000000000004" width="31.2822265625" height="59.699999999999996" fill="#000000" stroke="none" stroke-width="1.5" rx="2" ry="2"></rect></mask></defs><g><rect x="40.7236328125" y="51.300000000000004" width="31.2822265625" height="59.699999999999996" fill="#FFFFFF" stroke="none" stroke-width="1.5" rx="2" ry="2"></rect></g><g mask="url(#R0LineMask)"><line x1="24.001953125" y1="25.6" x2="24.001953125" y2="131" class="agent-2-line" fill="none" stroke="#000000" stroke-width="1"></line><line x1="62.005859375" y1="25.6" x2="62.005859375" y2="131" class="agent-4-line" fill="none" stroke="#000000" stroke-width="1"></line><line x1="100.3408203125" y1="25.6" x2="100.3408203125" y2="131" class="agent-6-line" fill="none" stroke="#000000" stroke-width="1"></line></g><g><g><g><path d="M25.49951171875 35.6L25.49951171875 46.300000000000004L23.49951171875 48.300000000000004L14.001953125 48.300000000000004L14.001953125 35.6" fill="#FFFFFF" stroke="none" stroke-width="1" rx="2" ry="2"></path><path d="M25.49951171875 35.6L25.49951171875 46.300000000000004L23.49951171875 48.300000000000004L14.001953125 48.300000000000004" fill="none" stroke="#000000" stroke-width="1" rx="2" ry="2"></path></g><rect x="14.001953125" y="35.6" width="96.3388671875" height="63.4" fill="none" stroke="#000000" stroke-width="1.5" rx="2" ry="2"></rect></g><g><g><path d="M58.228515625 51.300000000000004L58.228515625 62L56.228515625 64L40.7236328125 64L40.7236328125 51.300000000000004" fill="#FFFFFF" stroke="none" stroke-width="1" rx="2" ry="2"></path><path d="M58.228515625 51.300000000000004L58.228515625 62L56.228515625 64L40.7236328125 64" fill="none" stroke="#000000" stroke-width="1" rx="2" ry="2"></path></g><rect x="40.7236328125" y="51.300000000000004" width="31.2822265625" height="59.699999999999996" fill="none" stroke="#000000" stroke-width="1.5" rx="2" ry="2"></rect></g></g><g><rect x="10" y="0" width="28.00390625" height="25.6" fill="#FFFFFF" stroke="#000000" stroke-width="1"></rect><rect x="48.00390625" y="0" width="28.00390625" height="25.6" fill="#FFFFFF" stroke="#000000" stroke-width="1"></rect><rect x="86.0078125" y="0" width="28.666015625" height="25.6" fill="#FFFFFF" stroke="#000000" stroke-width="1"></rect><path d="M24.001953125 72L37.7236328125 72" fill="none" stroke="#000000" stroke-width="1"></path><polygon points="35.2236328125 77 40.2236328125 72 35.2236328125 67" fill="#000000" stroke-width="0" stroke-linejoin="miter"></polygon><path d="M24.001953125 87L97.3408203125 87" fill="none" stroke="#000000" stroke-width="1"></path><polygon points="94.8408203125 92 99.8408203125 87 94.8408203125 82" fill="#000000" stroke-width="0" stroke-linejoin="miter"></polygon></g><g><g class="region"><rect x="10" y="0" width="28.00390625" height="25.6" fill="transparent" class="outline"></rect><text x="24.001953125" font-family="sans-serif" font-size="12" line-height="1.3" text-anchor="middle" y="17">A</text></g><g class="region"><rect x="48.00390625" y="0" width="28.00390625" height="25.6" fill="transparent" class="outline"></rect><text x="62.005859375" font-family="sans-serif" font-size="12" line-height="1.3" text-anchor="middle" y="17">B</text></g><g class="region"><rect x="86.0078125" y="0" width="28.666015625" height="25.6" fill="transparent" class="outline"></rect><text x="100.3408203125" font-family="sans-serif" font-size="12" line-height="1.3" text-anchor="middle" y="17">C</text></g><g class="region"><rect x="14.001953125" y="35.6" width="96.3388671875" height="12.700000000000001" fill="transparent" class="outline"></rect><text x="17.001953125" font-family="sans-serif" font-weight="bold" font-size="9" line-height="1.3" text-anchor="left" y="45.6">if</text></g><g class="region"><rect x="40.7236328125" y="51.300000000000004" width="31.2822265625" height="12.700000000000001" fill="transparent" class="outline"></rect><text x="43.7236328125" font-family="sans-serif" font-weight="bold" font-size="9" line-height="1.3" text-anchor="left" y="61.300000000000004">ref</text><text x="63.228515625" font-family="sans-serif" font-size="8" line-height="1.3" text-anchor="left" y="60.300000000000004">R</text></g><g class="region"><path d="M24.001953125,67L40.7236328125,67L40.7236328125,77L24.001953125,77Z" fill="transparent" class="outline"></path></g><g class="region"><path d="M24.001953125,82L100.3408203125,82L100.3408203125,92L24.001953125,92Z" fill="transparent" class="outline"></path></g><g class="region"><rect x="19.001953125" y="121" width="10" height="10" fill="transparent" class="outline"></rect></g><g class="region"><rect x="57.005859375" y="121" width="10" height="10" fill="transparent" class="outline"></rect></g><g class="region"><rect x="95.3408203125" y="121" width="10" height="10" fill="transparent" class="outline"></rect></g></g></svg>