<svg width="253.00542449951172" height="286.4"  xmlns="http://www.w3.org/2000/svg" version="1.1" viewBox="-5 -5 253.00542449951172 286.4"><metadata>begin A, B, C, D, E, F
begin reference over B, C: My ref as R
simultaneously:
begin reference over D, E: Other ref as S

if
A -&gt; R
R -&gt; A
end
if
R -&gt; S
S -&gt; R
end
if
S -&gt; F
F -&gt; S
end
* -&gt; R
R &lt;- *
end R, S
</metadata><defs></defs><defs><mask id="R0FullMask" maskUnits="userSpaceOnUse"><rect fill="#FFFFFF" height="286.4" width="253.00542449951172" x="-5" y="-5"></rect></mask><mask id="R0LineMask" maskUnits="userSpaceOnUse"><rect fill="#FFFFFF" height="286.4" width="253.00542449951172" x="-5" y="-5"></rect><rect fill="#000000" height="12.4" width="30.220623016357422" x="69.50982522964478" y="35.6"></rect><rect fill="#000000" height="12.4" width="39.563514709472656" x="150.84428882598877" y="35.6"></rect><rect fill="#000000" stroke="none" stroke-width="1.5" rx="2" ry="2" height="220.79999999999998" width="58.334463596343994" x="52.00514268875122" y="35.6"></rect><rect fill="#000000" stroke="none" stroke-width="1.5" rx="2" ry="2" height="220.79999999999998" width="58.334463596343994" x="133.33960628509521" y="35.6"></rect></mask></defs><g><rect fill="#FFFFFF" stroke="none" stroke-width="1.5" rx="2" ry="2" height="220.79999999999998" width="58.334463596343994" x="52.00514268875122" y="35.6"></rect><rect fill="#FFFFFF" stroke="none" stroke-width="1.5" rx="2" ry="2" height="220.79999999999998" width="58.334463596343994" x="133.33960628509521" y="35.6"></rect></g><g></g><g></g><g mask="url(#R0FullMask)"><g mask="url(#R0LineMask)"><line fill="none" stroke="#000000" stroke-width="1" x1="24.00171422958374" x2="24.00171422958374" y1="25.6" y2="276.4" class="agent-2-line"></line><line fill="none" stroke="#000000" stroke-width="1" x1="62.00514268875122" x2="62.00514268875122" y1="25.6" y2="276.4" class="agent-6-line"></line><line fill="none" stroke="#000000" stroke-width="1" x1="100.33960628509521" x2="100.33960628509521" y1="25.6" y2="276.4" class="agent-7-line"></line><line fill="none" stroke="#000000" stroke-width="1" x1="143.33960628509521" x2="143.33960628509521" y1="25.6" y2="276.4" class="agent-13-line"></line><line fill="none" stroke="#000000" stroke-width="1" x1="181.6740698814392" x2="181.6740698814392" y1="25.6" y2="276.4" class="agent-14-line"></line><line fill="none" stroke="#000000" stroke-width="1" x1="219.34060430526733" x2="219.34060430526733" y1="25.6" y2="276.4" class="agent-17-line"></line></g><g><g><g><path d="M69.50982522964478 35.6L69.50982522964478 46.300000000000004L67.50982522964478 48.300000000000004L52.00514268875122 48.300000000000004L52.00514268875122 35.6" fill="#FFFFFF" stroke="none" stroke-width="1" rx="2" ry="2"></path><path d="M69.50982522964478 35.6L69.50982522964478 46.300000000000004L67.50982522964478 48.300000000000004L52.00514268875122 48.300000000000004" fill="none" stroke="#000000" stroke-width="1" rx="2" ry="2"></path></g><rect fill="none" stroke="#000000" stroke-width="1.5" rx="2" ry="2" height="220.79999999999998" width="58.334463596343994" x="52.00514268875122" y="35.6"></rect></g><g><g><path d="M150.84428882598877 35.6L150.84428882598877 46.300000000000004L148.84428882598877 48.300000000000004L133.33960628509521 48.300000000000004L133.33960628509521 35.6" fill="#FFFFFF" stroke="none" stroke-width="1" rx="2" ry="2"></path><path d="M150.84428882598877 35.6L150.84428882598877 46.300000000000004L148.84428882598877 48.300000000000004L133.33960628509521 48.300000000000004" fill="none" stroke="#000000" stroke-width="1" rx="2" ry="2"></path></g><rect fill="none" stroke="#000000" stroke-width="1.5" rx="2" ry="2" height="220.79999999999998" width="58.334463596343994" x="133.33960628509521" y="35.6"></rect></g><g><g><path d="M25.499176502227783 51.300000000000004L25.499176502227783 62L23.499176502227783 64L14.00171422958374 64L14.00171422958374 51.300000000000004" fill="#FFFFFF" stroke="none" stroke-width="1" rx="2" ry="2"></path><path d="M25.499176502227783 51.300000000000004L25.499176502227783 62L23.499176502227783 64L14.00171422958374 64" fill="none" stroke="#000000" stroke-width="1" rx="2" ry="2"></path></g><rect fill="none" stroke="#000000" stroke-width="1.5" rx="2" ry="2" height="47.699999999999996" width="106.33789205551147" x="14.00171422958374" y="51.300000000000004"></rect></g><g><g><path d="M50.502604961395264 109L50.502604961395264 119.7L48.502604961395264 121.7L39.00514268875122 121.7L39.00514268875122 109" fill="#FFFFFF" stroke="none" stroke-width="1" rx="2" ry="2"></path><path d="M50.502604961395264 109L50.502604961395264 119.7L48.502604961395264 121.7L39.00514268875122 121.7" fill="none" stroke="#000000" stroke-width="1" rx="2" ry="2"></path></g><rect fill="none" stroke="#000000" stroke-width="1.5" rx="2" ry="2" height="47.69999999999999" width="162.668927192688" x="39.00514268875122" y="109"></rect></g><g><g><path d="M134.83706855773926 166.7L134.83706855773926 177.39999999999998L132.83706855773926 179.39999999999998L123.33960628509521 179.39999999999998L123.33960628509521 166.7" fill="#FFFFFF" stroke="none" stroke-width="1" rx="2" ry="2"></path><path d="M134.83706855773926 166.7L134.83706855773926 177.39999999999998L132.83706855773926 179.39999999999998L123.33960628509521 179.39999999999998" fill="none" stroke="#000000" stroke-width="1" rx="2" ry="2"></path></g><rect fill="none" stroke="#000000" stroke-width="1.5" rx="2" ry="2" height="47.69999999999999" width="106.00099802017212" x="123.33960628509521" y="166.7"></rect></g></g><g><g class="region"><g><rect fill="#FFFFFF" stroke="#000000" stroke-width="1" height="25.6" width="28.00342845916748" x="10" y="0"></rect><g><text x="24.00171422958374" font-family="Helvetica,Arial,Liberation Sans,sans-serif" font-size="12" line-height="1.3" text-anchor="middle" y="17">A</text></g></g><rect class="outline" fill="transparent" height="25.6" width="28.00342845916748" x="10" y="0"></rect></g><g class="region"><g><rect fill="#FFFFFF" stroke="#000000" stroke-width="1" height="25.6" width="28.00342845916748" x="48.00342845916748" y="0"></rect><g><text x="62.00514268875122" font-family="Helvetica,Arial,Liberation Sans,sans-serif" font-size="12" line-height="1.3" text-anchor="middle" y="17">B</text></g></g><rect class="outline" fill="transparent" height="25.6" width="28.00342845916748" x="48.00342845916748" y="0"></rect></g><g class="region"><g><rect fill="#FFFFFF" stroke="#000000" stroke-width="1" height="25.6" width="28.665498733520508" x="86.00685691833496" y="0"></rect><g><text x="100.33960628509521" font-family="Helvetica,Arial,Liberation Sans,sans-serif" font-size="12" line-height="1.3" text-anchor="middle" y="17">C</text></g></g><rect class="outline" fill="transparent" height="25.6" width="28.665498733520508" x="86.00685691833496" y="0"></rect></g><g class="region"><g><rect fill="#FFFFFF" stroke="#000000" stroke-width="1" height="25.6" width="28.665498733520508" x="129.00685691833496" y="0"></rect><g><text x="143.33960628509521" font-family="Helvetica,Arial,Liberation Sans,sans-serif" font-size="12" line-height="1.3" text-anchor="middle" y="17">D</text></g></g><rect class="outline" fill="transparent" height="25.6" width="28.665498733520508" x="129.00685691833496" y="0"></rect></g><g class="region"><g><rect fill="#FFFFFF" stroke="#000000" stroke-width="1" height="25.6" width="28.00342845916748" x="167.67235565185547" y="0"></rect><g><text x="181.6740698814392" font-family="Helvetica,Arial,Liberation Sans,sans-serif" font-size="12" line-height="1.3" text-anchor="middle" y="17">E</text></g></g><rect class="outline" fill="transparent" height="25.6" width="28.00342845916748" x="167.67235565185547" y="0"></rect></g><g class="region"><g><rect fill="#FFFFFF" stroke="#000000" stroke-width="1" height="25.6" width="27.32964038848877" x="205.67578411102295" y="0"></rect><g><text x="219.34060430526733" font-family="Helvetica,Arial,Liberation Sans,sans-serif" font-size="12" line-height="1.3" text-anchor="middle" y="17">F</text></g></g><rect class="outline" fill="transparent" height="25.6" width="27.32964038848877" x="205.67578411102295" y="0"></rect></g><g class="region"><rect class="outline" fill="transparent" height="12.700000000000001" width="58.334463596343994" x="52.00514268875122" y="35.6"></rect><g><text x="55.00514268875122" font-family="Helvetica,Arial,Liberation Sans,sans-serif" font-weight="bold" font-size="9" line-height="1.3" text-anchor="left" y="45.6">ref</text></g><g><text x="74.50982522964478" font-family="Helvetica,Arial,Liberation Sans,sans-serif" font-size="8" line-height="1.3" text-anchor="left" y="44.6">My ref</text></g></g><g class="region"><rect class="outline" fill="transparent" height="12.700000000000001" width="58.334463596343994" x="133.33960628509521" y="35.6"></rect><g><text x="136.33960628509521" font-family="Helvetica,Arial,Liberation Sans,sans-serif" font-weight="bold" font-size="9" line-height="1.3" text-anchor="left" y="45.6">ref</text></g><g><text x="155.84428882598877" font-family="Helvetica,Arial,Liberation Sans,sans-serif" font-size="8" line-height="1.3" text-anchor="left" y="44.6">Other ref</text></g></g><g class="region expanded"><rect class="outline" fill="transparent" height="12.700000000000001" width="106.33789205551147" x="14.00171422958374" y="51.300000000000004"></rect><g><text x="17.00171422958374" font-family="Helvetica,Arial,Liberation Sans,sans-serif" font-weight="bold" font-size="9" line-height="1.3" text-anchor="left" y="61.300000000000004">if</text></g></g><g class="region"><path d="M24.00171422958374 72L49.00514268875122 72" fill="none" stroke="#000000" stroke-width="1"></path><polygon points="46.50514268875122 77 51.50514268875122 72 46.50514268875122 67" fill="#000000" stroke-width="0" stroke-linejoin="miter"></polygon><path class="outline" fill="transparent" d="M24.00171422958374,67L52.00514268875122,67L52.00514268875122,77L24.00171422958374,77Z"></path></g><g class="region"><path d="M52.00514268875122 87L27.00171422958374 87" fill="none" stroke="#000000" stroke-width="1"></path><polygon points="29.50171422958374 82 24.50171422958374 87 29.50171422958374 92" fill="#000000" stroke-width="0" stroke-linejoin="miter"></polygon><path class="outline" fill="transparent" d="M52.00514268875122,82L24.00171422958374,82L24.00171422958374,92L52.00514268875122,92Z"></path></g><g class="region expanded"><rect class="outline" fill="transparent" height="12.700000000000001" width="162.668927192688" x="39.00514268875122" y="109"></rect><g><text x="42.00514268875122" font-family="Helvetica,Arial,Liberation Sans,sans-serif" font-weight="bold" font-size="9" line-height="1.3" text-anchor="left" y="119">if</text></g></g><g class="region"><path d="M110.33960628509521 129.7L130.33960628509521 129.7" fill="none" stroke="#000000" stroke-width="1"></path><polygon points="127.83960628509521 134.7 132.83960628509521 129.7 127.83960628509521 124.69999999999999" fill="#000000" stroke-width="0" stroke-linejoin="miter"></polygon><path class="outline" fill="transparent" d="M110.33960628509521,124.69999999999999L133.33960628509521,124.69999999999999L133.33960628509521,134.7L110.33960628509521,134.7Z"></path></g><g class="region"><path d="M133.33960628509521 144.7L113.33960628509521 144.7" fill="none" stroke="#000000" stroke-width="1"></path><polygon points="115.83960628509521 139.7 110.83960628509521 144.7 115.83960628509521 149.7" fill="#000000" stroke-width="0" stroke-linejoin="miter"></polygon><path class="outline" fill="transparent" d="M133.33960628509521,139.7L110.33960628509521,139.7L110.33960628509521,149.7L133.33960628509521,149.7Z"></path></g><g class="region expanded"><rect class="outline" fill="transparent" height="12.700000000000001" width="106.00099802017212" x="123.33960628509521" y="166.7"></rect><g><text x="126.33960628509521" font-family="Helvetica,Arial,Liberation Sans,sans-serif" font-weight="bold" font-size="9" line-height="1.3" text-anchor="left" y="176.7">if</text></g></g><g class="region"><path d="M191.6740698814392 187.39999999999998L216.34060430526733 187.39999999999998" fill="none" stroke="#000000" stroke-width="1"></path><polygon points="213.84060430526733 192.39999999999998 218.84060430526733 187.39999999999998 213.84060430526733 182.39999999999998" fill="#000000" stroke-width="0" stroke-linejoin="miter"></polygon><path class="outline" fill="transparent" d="M191.6740698814392,182.39999999999998L219.34060430526733,182.39999999999998L219.34060430526733,192.39999999999998L191.6740698814392,192.39999999999998Z"></path></g><g class="region"><path d="M219.34060430526733 202.39999999999998L194.6740698814392 202.39999999999998" fill="none" stroke="#000000" stroke-width="1"></path><polygon points="197.1740698814392 197.39999999999998 192.1740698814392 202.39999999999998 197.1740698814392 207.39999999999998" fill="#000000" stroke-width="0" stroke-linejoin="miter"></polygon><path class="outline" fill="transparent" d="M219.34060430526733,197.39999999999998L191.6740698814392,197.39999999999998L191.6740698814392,207.39999999999998L219.34060430526733,207.39999999999998Z"></path></g><g class="region"><path d="M41.00514268875122 229.39999999999998L49.00514268875122 229.39999999999998" fill="none" stroke="#000000" stroke-width="1"></path><polygon points="46.50514268875122 234.39999999999998 51.50514268875122 229.39999999999998 46.50514268875122 224.39999999999998" fill="#000000" stroke-width="0" stroke-linejoin="miter"></polygon><circle cx="39.00514268875122" cy="229.39999999999998" r="2" fill="#000000" stroke="#000000" stroke-width="1"></circle><path class="outline" fill="transparent" d="M41.00514268875122,224.39999999999998L52.00514268875122,224.39999999999998L52.00514268875122,234.39999999999998L41.00514268875122,234.39999999999998Z"></path></g><g class="region"><path d="M113.33960628509521 244.39999999999998L121.33960628509521 244.39999999999998" fill="none" stroke="#000000" stroke-width="1"></path><polygon points="115.83960628509521 239.39999999999998 110.83960628509521 244.39999999999998 115.83960628509521 249.39999999999998" fill="#000000" stroke-width="0" stroke-linejoin="miter"></polygon><circle cx="123.33960628509521" cy="244.39999999999998" r="2" fill="#000000" stroke="#000000" stroke-width="1"></circle><path class="outline" fill="transparent" d="M110.33960628509521,239.39999999999998L121.33960628509521,239.39999999999998L121.33960628509521,249.39999999999998L110.33960628509521,249.39999999999998Z"></path></g><g class="region"><rect class="outline" fill="transparent" height="10" width="10" x="19.00171422958374" y="266.4"></rect></g><g class="region"><rect class="outline" fill="transparent" height="10" width="10" x="57.00514268875122" y="266.4"></rect></g><g class="region"><rect class="outline" fill="transparent" height="10" width="10" x="95.33960628509521" y="266.4"></rect></g><g class="region"><rect class="outline" fill="transparent" height="10" width="10" x="138.33960628509521" y="266.4"></rect></g><g class="region"><rect class="outline" fill="transparent" height="10" width="10" x="176.6740698814392" y="266.4"></rect></g><g class="region"><rect class="outline" fill="transparent" height="10" width="10" x="214.34060430526733" y="266.4"></rect></g></g></g></svg>