<svg width="69.33674081166586" height="147.6"  xmlns="http://www.w3.org/2000/svg" version="1.1" viewBox="-5 -5 69.33674081166586 147.6"><metadata>*A &lt;&lt;-&gt;&gt; A
A &lt;&lt;-&gt;&gt; +A
-A &lt;&lt;-&gt;&gt; A
A &lt;&lt;-&gt;&gt; !A
</metadata><defs></defs><defs><mask id="R0FullMask" maskUnits="userSpaceOnUse"><rect fill="#FFFFFF" height="147.6" width="69.33674081166586" x="-5" y="-5"></rect></mask><mask id="R0LineMask" maskUnits="userSpaceOnUse"><rect fill="#FFFFFF" height="147.6" width="69.33674081166586" x="-5" y="-5"></rect></mask></defs><g></g><g></g><g></g><g mask="url(#R0FullMask)"><g mask="url(#R0LineMask)"><line fill="none" stroke="#000000" stroke-width="1" x1="24.00170373916626" x2="24.00170373916626" y1="25.6" y2="63.6" class="agent-1-line"></line><rect fill="none" stroke="#000000" stroke-width="1" height="15.999999999999993" width="8" x="20.00170373916626" y="63.6" class="agent-1-line"></rect><line fill="none" stroke="#000000" stroke-width="1" x1="24.00170373916626" x2="24.00170373916626" y1="79.6" y2="127.6" class="agent-1-line"></line></g><g></g><g><g class="region"><g><rect fill="#FFFFFF" stroke="#000000" stroke-width="1" height="25.6" width="28.00340747833252" x="10" y="0"></rect><g><text x="24.00170373916626" font-family="Helvetica,Arial,Liberation Sans,sans-serif" font-size="12" line-height="1.3" text-anchor="middle" y="17">A</text></g></g><rect class="outline" fill="transparent" height="25.6" width="28.00340747833252" x="10" y="0"></rect></g><g class="region"><rect class="outline" fill="transparent" height="28.8" width="31.335037072499595" x="24.00170373916626" y="9.8"></rect><path d="M39.670074144999184 12.8L49.336740811665855 12.8A6 6 0 0 1 55.336740811665855 18.8L55.336740811665855 29.6A6 6 0 0 1 49.336740811665855 35.6L25.668370405832928 35.6" fill="none" stroke="#000000" stroke-width="1"></path><polyline points="43.336740811665855 9.8 39.336740811665855 12.8 43.336740811665855 15.8" fill="none" stroke="#000000" stroke-width="1" stroke-linejoin="miter"></polyline><polyline points="29.335037072499592 32.6 25.335037072499592 35.6 29.335037072499592 38.6" fill="none" stroke="#000000" stroke-width="1" stroke-linejoin="miter"></polyline></g><g class="region"><rect class="outline" fill="transparent" height="17.999999999999993" width="17.333333333333336" x="24.00170373916626" y="48.6"></rect><path d="M25.668370405832928 51.6L35.335037072499595 51.6A6 6 0 1 1 35.335037072499595 63.6L29.668370405832928 63.6" fill="none" stroke="#000000" stroke-width="1"></path><polyline points="29.335037072499592 48.6 25.335037072499592 51.6 29.335037072499592 54.6" fill="none" stroke="#000000" stroke-width="1" stroke-linejoin="miter"></polyline><polyline points="33.33503707249959 60.6 29.335037072499592 63.6 33.33503707249959 66.6" fill="none" stroke="#000000" stroke-width="1" stroke-linejoin="miter"></polyline></g><g class="region"><rect class="outline" fill="transparent" height="18" width="21.333333333333336" x="24.00170373916626" y="76.6"></rect><path d="M29.668370405832928 79.6L39.335037072499595 79.6A6 6 0 1 1 39.335037072499595 91.6L25.668370405832928 91.6" fill="none" stroke="#000000" stroke-width="1"></path><polyline points="33.33503707249959 76.6 29.335037072499592 79.6 33.33503707249959 82.6" fill="none" stroke="#000000" stroke-width="1" stroke-linejoin="miter"></polyline><polyline points="29.335037072499592 88.6 25.335037072499592 91.6 29.335037072499592 94.6" fill="none" stroke="#000000" stroke-width="1" stroke-linejoin="miter"></polyline></g><g class="region"><rect class="outline" fill="transparent" height="26" width="17.333333333333336" x="24.00170373916626" y="104.6"></rect><path d="M25.668370405832928 107.6L35.335037072499595 107.6A6 6 0 0 1 41.335037072499595 113.6L41.335037072499595 121.6A6 6 0 0 1 35.335037072499595 127.6L25.668370405832928 127.6" fill="none" stroke="#000000" stroke-width="1"></path><polyline points="29.335037072499592 104.6 25.335037072499592 107.6 29.335037072499592 110.6" fill="none" stroke="#000000" stroke-width="1" stroke-linejoin="miter"></polyline><polyline points="29.335037072499592 124.6 25.335037072499592 127.6 29.335037072499592 130.6" fill="none" stroke="#000000" stroke-width="1" stroke-linejoin="miter"></polyline></g><g class="region"><path d="M14.00170373916626 117.6l20 20m0 -20l-20 20" fill="none" stroke="#000000" stroke-width="1"></path><rect class="outline" fill="transparent" height="20" width="20" x="14.00170373916626" y="117.6"></rect></g></g></g></svg>